<?xml version="1.0" encoding="UTF-8" standalone="no"?>
<!-- Svg Vector Icons : http://www.onlinewebfonts.com/icon -->

<svg
   xmlns:dc="http://purl.org/dc/elements/1.1/"
   xmlns:cc="http://creativecommons.org/ns#"
   xmlns:rdf="http://www.w3.org/1999/02/22-rdf-syntax-ns#"
   xmlns:svg="http://www.w3.org/2000/svg"
   xmlns="http://www.w3.org/2000/svg"
   xmlns:sodipodi="http://sodipodi.sourceforge.net/DTD/sodipodi-0.dtd"
   xmlns:inkscape="http://www.inkscape.org/namespaces/inkscape"
   version="1.1"
   x="0px"
   y="0px"
   viewBox="0 0 1000 1000"
   enable-background="new 0 0 1000 1000"
   xml:space="preserve"
   id="svg38"
   sodipodi:docname="3daxis_local.svg"
   inkscape:version="0.92.4 (5da689c313, 2019-01-14)"><defs
   id="defs42" /><sodipodi:namedview
   pagecolor="#ffffff"
   bordercolor="#666666"
   borderopacity="1"
   objecttolerance="10"
   gridtolerance="10"
   guidetolerance="10"
   inkscape:pageopacity="0"
   inkscape:pageshadow="2"
   inkscape:window-width="3840"
   inkscape:window-height="2004"
   id="namedview40"
   showgrid="false"
   inkscape:zoom="1.3350176"
   inkscape:cx="166.37677"
   inkscape:cy="499.47105"
   inkscape:window-x="-16"
   inkscape:window-y="-16"
   inkscape:window-maximized="1"
   inkscape:current-layer="text927" />
<metadata
   id="metadata2"> Svg Vector Icons : http://www.onlinewebfonts.com/icon <rdf:RDF><cc:Work
     rdf:about=""><dc:format>image/svg+xml</dc:format><dc:type
       rdf:resource="http://purl.org/dc/dcmitype/StillImage" /><dc:title /></cc:Work></rdf:RDF></metadata>

<path
   style="opacity:0;fill:#999999;fill-opacity:0;stroke-width:0.74905378"
   d="M 125.43352,859.74941 C 122.8356,859.27038 37.486317,820.76943 23.292364,813.67366 13.993223,809.02488 9.2560192,800.1029 10.820037,790.18344 c 0.305927,-1.94028 10.354256,-24.8277 23.677865,-53.93187 22.198776,-48.49115 23.312801,-50.73129 27.211004,-54.71727 3.181018,-3.25265 5.01916,-4.4541 8.45564,-5.52677 10.255653,-3.20123 20.984095,1.32396 26.111406,11.01364 1.347638,2.54678 1.677221,4.40496 1.69045,9.53055 l 0.0164,6.36695 -11.858353,25.71918 C 79.60238,742.78341 74.37773,754.46637 74.514139,754.59999 74.709302,754.79117 398.63104,627.53462 405.30115,624.64633 l 1.70437,-0.73803 -1.42888,-2.81635 c -2.24547,-4.42587 -5.98031,-16.78248 -7.21825,-23.88137 -1.43897,-8.25168 -1.44288,-23.40126 -0.008,-32.24636 4.89998,-30.21175 24.77113,-57.32049 52.28512,-71.32871 3.85501,-1.9627 10.43809,-4.69161 14.62908,-6.06424 l 7.61998,-2.49569 V 349.82375 214.57191 l -20.41171,20.35637 c -23.03915,22.97667 -24.15771,23.77837 -33.14563,23.75609 -8.66037,-0.0215 -15.85329,-4.66486 -19.56111,-12.62765 -2.33366,-5.0117 -2.43776,-12.77377 -0.23689,-17.66363 1.15537,-2.56701 11.27864,-13.14291 42.45569,-44.35398 45.00992,-45.05905 44.06809,-44.272 52.99674,-44.2871 8.8065,-0.0149 7.94792,-0.73228 52.97313,44.26109 45.19309,45.16114 44.12297,43.87398 44.12297,53.07222 0,12.12788 -9.37246,21.56913 -21.44167,21.59905 -8.97968,0.0222 -10.12172,-0.79462 -32.97611,-23.58698 -11.13321,-11.10299 -20.48702,-20.18726 -20.78624,-20.18726 -0.29923,0 -0.54405,60.76483 -0.54405,135.03296 v 135.03297 l 6.92875,2.1058 c 15.56001,4.72906 28.58432,12.66644 40.65954,24.77911 11.92968,11.96666 19.22895,23.73282 24.21615,39.03555 6.65863,20.43132 5.97391,45.84868 -1.74699,64.84993 -1.04009,2.55968 -1.80736,4.71465 -1.70505,4.78884 0.10232,0.0741 38.78102,15.34198 85.95268,33.92843 47.17167,18.58645 123.68751,48.74692 170.03522,67.02326 46.3477,18.27635 84.37267,32.97606 84.50001,32.66604 0.12726,-0.31004 -5.09687,-12.13313 -11.60914,-26.27355 l -11.84052,-25.70985 0.0157,-5.6179 c 0.0127,-4.40273 0.39438,-6.34701 1.76492,-8.98865 6.64793,-12.81399 21.97949,-16.48554 33.16751,-7.94285 4.35237,3.3233 4.21372,3.04878 30.69083,60.75114 l 21.99731,47.93945 -0.0187,5.6179 c -0.0157,4.59961 -0.37662,6.29677 -1.99293,9.36317 -2.43367,4.61701 -5.82224,7.8803 -10.72203,10.32554 -6.8665,3.42671 -95.83229,44.14631 -98.8751,45.25507 -4.89627,1.78416 -11.81977,1.41277 -16.51843,-0.88608 -13.16343,-6.44024 -16.42323,-23.12527 -6.64329,-34.00291 3.06625,-3.41037 5.05087,-4.469 28.95692,-15.44582 14.11577,-6.48148 25.91577,-12.01345 26.22228,-12.29329 0.30644,-0.27982 -20.08655,-8.63856 -45.31776,-18.57495 C 839.2163,767.73304 759.78004,736.43782 687.92255,708.12451 603.1838,674.73574 556.9576,656.87939 556.37639,657.3106 c -20.27468,15.0423 -38.62322,21.46707 -61.39503,21.4976 -19.73039,0.0264 -37.33752,-5.16079 -53.6023,-15.79177 l -5.66287,-3.70136 -39.28036,15.50857 c -21.6039,8.52973 -98.09952,38.68887 -169.98996,67.02034 -71.89043,28.33146 -131.973915,52.01434 -133.518839,52.62862 -1.544923,0.61429 -2.802682,1.33309 -2.795027,1.59734 0.0076,0.26425 7.001946,3.65787 15.542866,7.54137 38.26869,17.40053 39.83719,18.33698 43.35056,25.88176 2.43363,5.22607 2.43344,12.7895 -4.5e-4,17.99299 -4.11518,8.798 -14.1355,14.00684 -23.59114,12.26335 z m 382.93847,-226.0946 c 9.3809,-2.39923 17.08749,-6.8749 24.51204,-14.23558 7.13715,-7.07576 10.94008,-13.13755 14.03209,-22.36684 1.69955,-5.07298 1.92442,-6.96576 1.92815,-16.22949 0.004,-9.81207 -0.14476,-10.90897 -2.3115,-17.04937 -3.22763,-9.14689 -6.40434,-14.17699 -13.34981,-21.13844 -10.4725,-10.49664 -21.15599,-15.22329 -35.95446,-15.9072 -6.71659,-0.3104 -9.44785,-0.0916 -14.77641,1.18384 -22.71054,5.43592 -39.14686,23.90975 -41.73372,46.90717 -3.03185,26.95344 14.19651,52.01575 40.40547,58.77835 7.74377,1.99809 19.56309,2.02307 27.24815,0.0575 z"
   id="path849"
   inkscape:connector-curvature="0" /><g
   style="fill:#999999"
   id="g36"
   transform="matrix(1,0,0,1.3260367,0,-173.47251)"><path
     style="fill:#999999"
     id="path4"
     d="m 988,784.6 -44.6,-97.2 c -5.1,-11.1 -18.3,-16 -29.4,-10.9 -11.1,5.1 -16,18.3 -10.9,29.4 L 925.4,754.5 585,620.3 c 5.3,-12.1 8.3,-25.4 8.3,-39.4 C 593.3,534.2 560.6,495 517,485 V 215 l 37.8,37.8 c 4.3,4.3 10,6.5 15.7,6.5 5.7,0 11.3,-2.2 15.7,-6.5 8.7,-8.7 8.7,-22.7 0,-31.3 l -75.6,-75.6 c -0.1,-0.1 -0.1,-0.1 -0.2,-0.2 -0.5,-0.5 -0.9,-0.9 -1.4,-1.3 -0.2,-0.1 -0.3,-0.2 -0.5,-0.4 -0.4,-0.3 -0.8,-0.6 -1.2,-0.9 -0.2,-0.1 -0.3,-0.2 -0.5,-0.3 -0.5,-0.3 -0.9,-0.6 -1.4,-0.8 -0.1,-0.1 -0.2,-0.1 -0.3,-0.2 -0.5,-0.3 -1.1,-0.5 -1.6,-0.8 -0.1,0 -0.1,-0.1 -0.2,-0.1 -0.6,-0.2 -1.2,-0.5 -1.8,-0.7 -0.1,0 -0.2,0 -0.2,-0.1 -0.6,-0.2 -1.2,-0.3 -1.9,-0.5 -0.2,0 -0.4,-0.1 -0.6,-0.1 -0.5,-0.1 -1,-0.2 -1.6,-0.2 -0.7,-0.1 -1.5,-0.1 -2.2,-0.1 -0.7,0 -1.5,0 -2.2,0.1 -0.5,0.1 -1.1,0.1 -1.6,0.2 -0.2,0 -0.4,0.1 -0.6,0.1 -0.6,0.1 -1.2,0.3 -1.9,0.5 -0.1,0 -0.2,0 -0.2,0.1 -0.6,0.2 -1.2,0.4 -1.8,0.7 -0.1,0 -0.1,0.1 -0.2,0.1 -0.6,0.2 -1.1,0.5 -1.6,0.8 -0.1,0.1 -0.2,0.1 -0.3,0.2 -0.5,0.3 -0.9,0.5 -1.4,0.8 -0.2,0.1 -0.3,0.2 -0.5,0.3 -0.4,0.3 -0.8,0.6 -1.2,0.9 -0.2,0.1 -0.3,0.2 -0.5,0.4 -0.5,0.4 -1,0.8 -1.4,1.3 -0.1,0.1 -0.1,0.1 -0.2,0.2 l -75.6,75.6 c -8.7,8.7 -8.7,22.7 0,31.3 8.7,8.7 22.7,8.7 31.3,0 L 472.9,215 v 270 c -43.7,10.1 -76.3,49.3 -76.3,95.9 0,15.4 3.5,29.9 9.8,42.9 L 74.6,754.5 96.9,705.9 C 102,694.8 97.1,681.6 86,676.5 74.9,671.4 61.7,676.3 56.6,687.4 L 12,784.6 c -5.1,11.1 -0.2,24.3 10.9,29.4 l 97.2,44.6 c 3,1.4 6.1,2 9.2,2 8.4,0 16.4,-4.8 20.2,-12.9 5.1,-11.1 0.2,-24.3 -10.9,-29.4 L 90,796 435.8,659.7 c 16.5,12.3 36.9,19.7 59,19.7 23.7,0 45.4,-8.4 62.4,-22.4 l 352.7,139 -48.6,22.3 c -11.1,5.1 -16,18.3 -10.9,29.4 3.7,8.1 11.8,12.9 20.2,12.9 3.1,0 6.2,-0.7 9.2,-2 L 977,814 c 11.2,-5.1 16.1,-18.2 11,-29.4 z M 494.8,635.1 c -29.9,0 -54.2,-24.3 -54.2,-54.2 0,-29.9 24.3,-54.2 54.2,-54.2 29.9,0 54.2,24.3 54.2,54.2 0,29.9 -24.3,54.2 -54.2,54.2 z"
     inkscape:connector-curvature="0" /><g
     style="fill:#999999"
     id="g6" /><g
     style="fill:#999999"
     id="g8" /><g
     style="fill:#999999"
     id="g10" /><g
     style="fill:#999999"
     id="g12" /><g
     style="fill:#999999"
     id="g14" /><g
     style="fill:#999999"
     id="g16" /><g
     style="fill:#999999"
     id="g18" /><g
     style="fill:#999999"
     id="g20" /><g
     style="fill:#999999"
     id="g22" /><g
     style="fill:#999999"
     id="g24" /><g
     style="fill:#999999"
     id="g26" /><g
     style="fill:#999999"
     id="g28" /><g
     style="fill:#999999"
     id="g30" /><g
     style="fill:#999999"
     id="g32" /><g
     style="fill:#999999"
     id="g34" /></g>
<path
   style="opacity:0;fill:#1a1a1a;fill-opacity:0;stroke-width:0.74905378"
   d="M 124.616,859.87 C 123.60902,859.65715 102.20481,850.03792 77.051085,838.49392 51.897363,826.94991 28.899508,816.39524 25.944743,815.03909 15.514223,810.25177 10.509606,803.30638 10.50177,793.60736 c -0.004,-4.92516 0.191006,-5.3959 21.563527,-52.05924 11.862149,-25.89902 22.717771,-49.44866 24.123606,-52.33252 4.814202,-9.87561 11.2373,-14.23311 20.820422,-14.12482 6.29397,0.0712 9.719385,1.43107 14.345714,5.69547 5.375202,4.95469 6.622654,7.97018 6.585763,15.91989 l -0.03131,6.74148 -11.7604,25.40595 c -6.468219,13.97326 -11.656187,25.51015 -11.528816,25.63752 0.24267,0.24267 330.932104,-129.90194 331.489734,-130.45957 0.17639,-0.17639 -0.91244,-3.54244 -2.41964,-7.48012 -4.59682,-12.00966 -5.88261,-18.69022 -6.27014,-32.57786 -0.25816,-9.25131 -0.0438,-14.09681 0.85245,-19.26833 6.24613,-36.04167 31.99315,-65.76965 66.7465,-77.06669 l 7.49053,-2.4349 0.1893,-135.41665 0.18931,-135.41666 -21.16281,21.03512 c -19.40561,19.28851 -21.49786,21.14439 -25.19804,22.35124 -10.39108,3.38918 -21.93074,-1.46589 -26.71204,-11.23852 -1.5521,-3.17237 -1.96875,-5.12825 -1.96875,-9.24177 0,-9.53292 -1.20169,-8.07498 43.79606,-53.13505 45.15006,-45.21259 44.11735,-44.35669 53.51967,-44.35669 3.97295,0 5.98544,0.42144 8.84777,1.85285 2.80968,1.40508 13.51791,11.67807 44.30976,42.50881 44.8805,44.93716 43.88418,43.73354 43.88418,53.01534 0,14.83435 -14.53304,25.23824 -28.76892,20.59503 -3.69886,-1.20642 -5.78736,-3.05767 -25.05438,-22.20817 -11.56054,-11.49061 -21.25142,-20.65976 -21.5353,-20.37589 -0.28388,0.28389 -0.51614,60.9449 -0.51614,134.80226 0,106.61669 0.19292,134.40696 0.93631,134.87265 0.51498,0.3226 4.13853,1.6304 8.05233,2.90622 34.29392,11.17914 60.10164,41.0738 66.20487,76.68914 1.53141,8.9365 1.55898,24.05758 0.0597,32.72825 -0.63266,3.65878 -2.42593,10.41072 -3.98501,15.00431 l -2.83472,8.35197 170.0877,67.06135 c 93.54822,36.88375 170.17508,66.82341 170.28197,66.5326 0.10674,-0.29082 -4.85492,-11.53753 -11.02608,-24.99271 -6.17108,-13.45517 -11.61213,-26.02056 -12.09122,-27.92307 -1.14141,-4.5332 -0.4543,-9.86804 1.85915,-14.43344 6.56823,-12.96165 24.04815,-15.84468 34.50329,-5.69075 3.39494,3.29706 2.73584,1.95172 28.7988,58.78762 15.93117,34.7413 21.97454,48.67556 22.29895,51.41477 0.88508,7.47327 -2.74843,15.88051 -8.62295,19.95154 -2.28117,1.58085 -61.1607,29.01057 -97.86126,45.58977 -5.86517,2.64953 -7.47181,3.05383 -12.35939,3.1101 -4.49874,0.0518 -6.34284,-0.2922 -9.25703,-1.72678 -13.74461,-6.76617 -16.84495,-24.35209 -6.15378,-34.90582 3.41771,-3.37378 6.34666,-4.91259 29.08104,-15.27862 13.90431,-6.33984 25.28057,-11.73934 25.28057,-11.99889 0,-0.25954 -79.24892,-31.70407 -176.10867,-69.87672 l -176.1087,-69.40484 -6.84769,4.7239 c -16.03306,11.06045 -32.19034,16.49103 -51.79091,17.40729 -20.06547,0.938 -41.69672,-5.15008 -58.26992,-16.39998 -2.38593,-1.61956 -4.79042,-2.83836 -5.34332,-2.70845 -2.28515,0.53698 -344.981786,135.8478 -344.9884,136.21571 -0.0037,0.22042 11.36905,5.60723 25.27336,11.9707 20.39145,9.33238 25.95308,12.1936 28.758,14.79473 13.84926,12.84303 5.38094,36.21626 -13.50471,37.27405 -2.31261,0.12953 -5.02864,0.0613 -6.03562,-0.15147 z M 501.81027,634.84964 c 11.9196,-1.65787 23.07994,-7.19317 31.24041,-15.49459 7.46192,-7.59081 10.98757,-13.45125 14.09133,-23.42304 2.51209,-8.07085 2.51996,-21.9199 0.017,-29.93576 -5.9865,-19.17222 -20.08645,-32.87555 -39.06926,-37.97025 -5.99233,-1.60826 -19.56952,-1.77473 -25.46782,-0.31228 -19.70847,4.88663 -35.58249,20.37858 -40.47252,39.49843 -1.81828,7.10942 -1.96219,19.45958 -0.30877,26.49909 4.99986,21.28723 24.05006,38.34584 46.02466,41.21305 6.21546,0.81097 7.63204,0.80339 13.94494,-0.0747 z"
   id="path834"
   inkscape:connector-curvature="0" /><path
   style="opacity:0;fill:#000000;fill-opacity:0;stroke-width:0.74905378"
   d="m 122.25217,859.02371 c -4.73171,-1.76063 -94.35898,-42.9321 -100.262454,-46.05688 -5.287592,-2.79878 -9.033638,-7.40091 -10.705543,-13.15206 -2.3029319,-7.9218 -2.3601879,-7.76315 21.867954,-60.59604 12.233906,-26.67776 23.039802,-50.08503 24.013102,-52.01616 3.882943,-7.70415 10.863125,-12.07481 19.394664,-12.14404 11.542102,-0.0937 20.62969,8.06559 21.813225,19.58489 0.59245,5.76621 -0.34571,8.33738 -13.174463,36.10654 -5.795248,12.54441 -10.446826,23.05498 -10.336842,23.35681 0.109985,0.30184 74.524837,-28.7437 165.366337,-64.54563 90.8415,-35.80193 165.4921,-65.21297 165.89024,-65.35785 0.39813,-0.14488 -0.17072,-2.26156 -1.26411,-4.70372 -1.09339,-2.44216 -2.87248,-7.47396 -3.95355,-11.18178 -10.02148,-34.3716 -0.56657,-71.1775 24.80105,-96.54512 12.93716,-12.93717 26.51067,-20.62393 46.54578,-26.35918 0.74461,-0.21315 0.93632,-27.98972 0.93632,-135.66486 V 214.35181 l -20.41172,20.31356 c -13.41066,13.34617 -21.56029,20.88897 -23.76043,21.99118 -4.6605,2.33481 -11.46344,2.77734 -16.57838,1.07843 -5.69311,-1.89095 -12.07886,-8.3361 -13.71373,-13.8413 -1.50196,-5.05764 -1.50237,-8.3877 -0.002,-13.52484 1.14495,-3.91928 2.70386,-5.58917 42.5088,-45.53504 45.64516,-45.80677 44.71642,-45.02845 53.74727,-45.04184 9.41388,-0.0139 9.05122,-0.31401 53.60273,44.34886 26.86054,26.92767 40.3824,41.00898 41.5635,43.28312 2.49678,4.8074 2.51884,14.65839 0.0433,19.31904 -5.64209,10.62207 -18.98045,15.13157 -29.36038,9.92629 -2.22553,-1.11604 -10.30636,-8.59261 -23.7845,-22.00594 l -20.41375,-20.31559 0.1893,135.45842 0.1893,135.45842 6.34945,1.83308 c 29.55942,8.5338 54.956,33.42651 64.76716,63.48219 3.4761,10.64875 4.51541,17.81737 4.46131,30.772 -0.056,13.39336 -1.39762,21.36546 -5.47412,32.52638 -1.26748,3.47022 -2.17382,6.44018 -2.01409,6.59992 0.55497,0.55498 340.05741,134.24203 340.29876,134.00064 0.13355,-0.13357 -5.05589,-11.67023 -11.53213,-25.63701 l -11.77521,-25.39416 -0.0285,-6.74148 c -0.0337,-7.9496 1.21519,-10.96682 6.5886,-15.91989 4.66219,-4.29744 8.05488,-5.63911 14.34573,-5.67313 9.65927,-0.0522 16.01649,4.2532 20.82332,14.10248 1.4074,2.88386 12.24561,26.38941 24.08493,52.23457 21.34998,46.60685 21.52623,47.03264 21.55687,52.05924 0.0667,10.98037 -4.77155,16.75298 -19.71472,23.52091 -5.11372,2.31607 -27.78975,12.70451 -50.3911,23.0854 -22.60142,10.3809 -42.87337,19.2477 -45.04877,19.70401 -11.02742,2.31302 -22.73483,-5.69222 -25.11877,-17.17557 -1.58979,-7.65786 1.68822,-16.40392 7.98754,-21.3119 1.38642,-1.08018 13.81382,-7.136 27.61649,-13.45737 13.80266,-6.32138 25.09008,-11.67346 25.08311,-11.89353 -0.007,-0.22006 -79.30367,-31.63867 -176.21493,-69.81911 -160.48336,-63.22617 -176.33587,-69.32441 -177.70033,-68.35883 -7.51564,5.3185 -13.68642,9.11514 -18.72634,11.52157 -30.6589,14.63882 -66.24963,12.53447 -94.87037,-5.60936 l -6.73088,-4.26698 -171.66835,67.62351 c -94.4176,37.19293 -172.296229,67.93922 -173.063627,68.3251 -1.11672,0.56152 3.715733,3.043 24.205417,12.42956 15.23337,6.97857 26.80065,12.73539 28.56381,14.21565 6.20521,5.20958 8.97407,15.30955 6.35707,23.18862 -3.69912,11.137 -17.06466,17.77559 -27.76888,13.79262 z M 509.42644,633.2842 c 18.13714,-5.01494 33.12312,-20.22012 38.00221,-38.55806 3.43357,-12.90496 1.73181,-26.96313 -4.78743,-39.54878 -3.67061,-7.08626 -13.2942,-17.24134 -20.14369,-21.25618 -27.13953,-15.90791 -62.46589,-5.39375 -76.30934,22.7119 -10.7654,21.85645 -6.44033,46.57491 11.09963,63.43606 8.07082,7.75848 18.9557,13.17336 29.75355,14.80145 6.03978,0.91067 15.87494,0.21368 22.38507,-1.58639 z"
   id="path836"
   inkscape:connector-curvature="0" /><g
   aria-label="L"
   transform="scale(1.1164727,0.89567795)"
   style="font-style:normal;font-weight:normal;font-size:503.07827759px;line-height:1.25;font-family:sans-serif;letter-spacing:0px;word-spacing:0px;fill:#999999;fill-opacity:1;stroke:none;stroke-width:2.6201992"
   id="text927"><path
     d="M 879.51754,511.01827 H 608.53743 v -407.5784 h 56.9576 v 359.40258 h 214.02251 z"
     style="fill:#999999;stroke-width:2.99316144"
     id="path929"
     inkscape:connector-curvature="0" /><path
     style="fill:#999999;fill-opacity:1;fill-rule:nonzero;stroke:#999999;stroke-width:22.47161293;stroke-miterlimit:4;stroke-dasharray:none;stroke-opacity:1"
     d="m 487.98053,667.83967 c -20.74821,-3.69793 -37.36221,-22.18603 -44.67646,-49.71605 -1.38739,-5.22197 -1.61294,-8.13347 -1.63011,-21.04164 -0.0222,-16.70654 0.94296,-22.37859 5.86052,-34.44041 7.24911,-17.78068 21.87553,-32.04777 36.8548,-35.94937 5.62882,-1.46613 15.26633,-1.46613 20.89515,0 10.17751,2.6509 21.3259,10.855 28.59701,21.04456 4.57804,6.41554 9.54597,17.23665 11.9937,26.12456 1.94097,7.04782 2.06277,8.3981 2.06069,22.84614 -0.002,14.20858 -0.1485,15.89663 -1.96064,22.59861 -7.78416,28.78863 -26.29056,47.36538 -48.67245,48.85745 -3.00415,0.20027 -7.19915,0.0545 -9.32221,-0.32385 z"
     id="path833"
     inkscape:connector-curvature="0"
     transform="scale(0.89567797,1.1164727)" /></g></svg>