<?xml version="1.0" encoding="UTF-8" standalone="no"?>
<!-- Svg Vector Icons : http://www.onlinewebfonts.com/icon -->

<svg
   xmlns:dc="http://purl.org/dc/elements/1.1/"
   xmlns:cc="http://creativecommons.org/ns#"
   xmlns:rdf="http://www.w3.org/1999/02/22-rdf-syntax-ns#"
   xmlns:svg="http://www.w3.org/2000/svg"
   xmlns="http://www.w3.org/2000/svg"
   xmlns:sodipodi="http://sodipodi.sourceforge.net/DTD/sodipodi-0.dtd"
   xmlns:inkscape="http://www.inkscape.org/namespaces/inkscape"
   version="1.1"
   x="0px"
   y="0px"
   viewBox="0 0 1000 1000"
   enable-background="new 0 0 1000 1000"
   xml:space="preserve"
   id="svg10"
   sodipodi:docname="rotate.svg"
   inkscape:version="0.92.4 (5da689c313, 2019-01-14)"><defs
   id="defs14" /><sodipodi:namedview
   pagecolor="#ffffff"
   bordercolor="#666666"
   borderopacity="1"
   objecttolerance="10"
   gridtolerance="10"
   guidetolerance="10"
   inkscape:pageopacity="0"
   inkscape:pageshadow="2"
   inkscape:window-width="3840"
   inkscape:window-height="2004"
   id="namedview12"
   showgrid="false"
   inkscape:zoom="0.236"
   inkscape:cx="500"
   inkscape:cy="500"
   inkscape:window-x="-16"
   inkscape:window-y="-16"
   inkscape:window-maximized="1"
   inkscape:current-layer="svg10" />
<metadata
   id="metadata2"> Svg Vector Icons : http://www.onlinewebfonts.com/icon <rdf:RDF><cc:Work
     rdf:about=""><dc:format>image/svg+xml</dc:format><dc:type
       rdf:resource="http://purl.org/dc/dcmitype/StillImage" /><dc:title></dc:title></cc:Work></rdf:RDF></metadata>
<g
   id="g8"
   style="fill:#999999"><g
     transform="matrix(0.1,0,0,-0.1,0,512)"
     id="g6"
     style="fill:#999999"><path
       d="M 3480.6,4109.3 C 2644.7,3607 1960.2,3192.9 1960.2,3187.1 c 0,-5.8 686.4,-421.8 1524.2,-924.1 l 1524.2,-914.5 v 615.4 615.4 l 203.2,-11.5 C 6431.2,2493 7516.3,1662.9 7909.3,502.9 8036,131 8064.7,-51.1 8064.7,-494 c 0,-335.5 -5.8,-421.8 -44.1,-594.4 C 7754.1,-2332.6 6847.3,-3239.5 5603,-3506 c -172.6,-38.3 -258.8,-44.1 -594.4,-44.1 -442.9,0 -625,28.8 -997,155.3 -1159.9,393 -1990.1,1478.2 -2064.9,2697.6 L 1935.3,-494 H 1321.8 708.2 l 13.4,-205.2 c 34.5,-542.6 147.6,-1023.8 347,-1491.6 535,-1246.2 1643.2,-2174.1 2969.9,-2482.8 615.4,-141.9 1324.8,-141.9 1940.3,0 1466.7,341.3 2655.4,1436 3111.7,2864.4 147.5,458.2 201.3,814.8 201.3,1315.2 0,500.4 -53.7,857 -201.3,1315.2 C 8592,2378 7244.1,3515 5622.1,3750.8 c -111.2,15.3 -293.3,34.5 -406.4,42.2 l -207.1,13.4 -3.8,605.8 -5.8,607.8 z"
       id="path4"
       inkscape:connector-curvature="0"
       style="fill:#999999" /></g></g>
</svg>