<?xml version="1.0" encoding="UTF-8" standalone="no"?>
<!-- Svg Vector Icons : http://www.onlinewebfonts.com/icon -->

<svg
   xmlns:dc="http://purl.org/dc/elements/1.1/"
   xmlns:cc="http://creativecommons.org/ns#"
   xmlns:rdf="http://www.w3.org/1999/02/22-rdf-syntax-ns#"
   xmlns:svg="http://www.w3.org/2000/svg"
   xmlns="http://www.w3.org/2000/svg"
   xmlns:sodipodi="http://sodipodi.sourceforge.net/DTD/sodipodi-0.dtd"
   xmlns:inkscape="http://www.inkscape.org/namespaces/inkscape"
   version="1.1"
   x="0px"
   y="0px"
   viewBox="0 0 1000 1000"
   enable-background="new 0 0 1000 1000"
   xml:space="preserve"
   id="svg10"
   sodipodi:docname="pick.svg"
   inkscape:version="0.92.4 (5da689c313, 2019-01-14)"><defs
   id="defs14"><inkscape:perspective
     sodipodi:type="inkscape:persp3d"
     inkscape:vp_x="-1222.3602 : 645.61602 : 1"
     inkscape:vp_y="0 : 1784.8502 : 0"
     inkscape:vp_z="1953.7777 : 645.61602 : 1"
     inkscape:persp3d-origin="365.70873 : 348.14103 : 1"
     id="perspective88" /></defs><sodipodi:namedview
   pagecolor="#ffffff"
   bordercolor="#666666"
   borderopacity="1"
   objecttolerance="10"
   gridtolerance="10"
   guidetolerance="10"
   inkscape:pageopacity="0"
   inkscape:pageshadow="2"
   inkscape:window-width="3840"
   inkscape:window-height="2004"
   id="namedview12"
   showgrid="false"
   inkscape:zoom="1.3350176"
   inkscape:cx="497.00378"
   inkscape:cy="500"
   inkscape:window-x="-16"
   inkscape:window-y="-16"
   inkscape:window-maximized="1"
   inkscape:current-layer="svg10" />
<metadata
   id="metadata2"> Svg Vector Icons : http://www.onlinewebfonts.com/icon <rdf:RDF><cc:Work
     rdf:about=""><dc:format>image/svg+xml</dc:format><dc:type
       rdf:resource="http://purl.org/dc/dcmitype/StillImage" /><dc:title></dc:title></cc:Work></rdf:RDF></metadata>
<g
   id="g8"
   transform="matrix(-0.44497114,0.79254341,-0.79297747,-0.46662648,1159.4012,358.29273)"
   style="fill:#999999"><g
     transform="matrix(0.1,0,0,-0.1,0,512)"
     id="g6"
     style="fill:#999999"><path
       d="m 3913.3,4998.1 c -130.2,-42.1 -243.2,-118.7 -300.7,-199.2 -113,-162.8 -107.2,-23 -109.2,-2931.9 V -806.3 l -36.4,141.7 c -72.8,273.8 -260.4,570.7 -519,815.8 -327.5,310.2 -689.4,465.4 -1039.8,446.2 -294.9,-17.2 -496,-195.3 -522.8,-467.3 -15.3,-139.8 46,-256.6 245.1,-476.8 430.9,-473 578.3,-771.7 718.1,-1442 103.4,-505.6 199.2,-831.1 528.5,-1813.5 317.9,-951.8 348.5,-1028.4 413.6,-1087.7 99.6,-90 53.6,-88.1 2376.5,-90 2171.6,0 2192.7,0 2273.1,38.3 134.1,65.1 160.9,128.3 275.8,622.4 302.9,1315.5 417.8,2336.2 398.6,3561.8 -5.7,438.6 -5.7,440.5 -59.4,549.6 C 8409.7,289 8019.1,402 7735.7,231.6 7617,158.8 7572.9,103.3 7527,-28.8 L 7494.4,-126.5 7481,132 C 7463.8,448 7437,549.5 7333.6,666.3 7023.4,1018.7 6378,919.1 6245.9,497.8 6207.6,381 6207.6,381 6205.7,457.6 c -3.8,264.3 -38.3,534.3 -76.6,612.8 -57.5,116.8 -201.1,245.1 -337.1,296.8 -226,88.1 -532.4,53.6 -716.2,-78.5 -86.2,-63.2 -191.5,-212.6 -191.5,-273.8 0,-19.2 -5.7,-30.6 -13.4,-23 -7.7,7.7 -53.6,821.5 -103.4,1809.7 -84.3,1689 -91.9,1800.1 -132.1,1892 -82.3,195.3 -268.1,314.1 -507.5,325.6 -78.6,3.8 -166.7,-5.8 -214.6,-21.1 z"
       id="path4"
       inkscape:connector-curvature="0"
       style="fill:#999999" /></g></g>
</svg>