<?xml version="1.0" encoding="UTF-8" standalone="no"?>
<!-- Svg Vector Icons : http://www.onlinewebfonts.com/icon -->

<svg
   xmlns:dc="http://purl.org/dc/elements/1.1/"
   xmlns:cc="http://creativecommons.org/ns#"
   xmlns:rdf="http://www.w3.org/1999/02/22-rdf-syntax-ns#"
   xmlns:svg="http://www.w3.org/2000/svg"
   xmlns="http://www.w3.org/2000/svg"
   xmlns:sodipodi="http://sodipodi.sourceforge.net/DTD/sodipodi-0.dtd"
   xmlns:inkscape="http://www.inkscape.org/namespaces/inkscape"
   version="1.1"
   x="0px"
   y="0px"
   viewBox="0 0 1000 1000"
   enable-background="new 0 0 1000 1000"
   xml:space="preserve"
   id="svg14"
   sodipodi:docname="move-snap.svg"
   inkscape:version="0.92.4 (5da689c313, 2019-01-14)"><defs
   id="defs18" /><sodipodi:namedview
   pagecolor="#ffffff"
   bordercolor="#666666"
   borderopacity="1"
   objecttolerance="10"
   gridtolerance="10"
   guidetolerance="10"
   inkscape:pageopacity="0"
   inkscape:pageshadow="2"
   inkscape:window-width="3840"
   inkscape:window-height="2004"
   id="namedview16"
   showgrid="false"
   inkscape:zoom="0.944"
   inkscape:cx="500"
   inkscape:cy="500"
   inkscape:window-x="-16"
   inkscape:window-y="-16"
   inkscape:window-maximized="1"
   inkscape:current-layer="svg14" />
<metadata
   id="metadata2"> Svg Vector Icons : http://www.onlinewebfonts.com/icon <rdf:RDF><cc:Work
     rdf:about=""><dc:format>image/svg+xml</dc:format><dc:type
       rdf:resource="http://purl.org/dc/dcmitype/StillImage" /><dc:title></dc:title></cc:Work></rdf:RDF></metadata>
<g
   id="g12"
   transform="matrix(0.32077834,0.26631531,-0.28110846,0.33859676,772.54347,-88.147977)"
   style="fill:#999999"><g
     transform="matrix(0.1,0,0,-0.1,0,511)"
     id="g10"
     style="fill:#999999"><path
       d="M 4518.6,4984.2 C 4202.1,4948.5 3908.5,4884.6 3592,4780 1761.7,4185.2 490.4,2449.4 485.3,545.1 c 0,-250.2 234.8,-3065.8 270.6,-3234.2 l 10.2,-58.7 h 1225.3 c 929.2,0 1225.3,7.7 1225.3,30.6 0,15.3 -63.8,742.8 -142.9,1613.3 C 2969.1,52.4 2935.9,542.5 2946.1,711 c 43.4,730.1 464.6,1358 1125.7,1674.6 296.1,143 464.6,181.2 850,194 288.4,12.8 375.2,5.1 582,-43.4 C 6387.1,2332 7007.4,1604.5 7061,711 c 10.2,-163.4 -23,-673.9 -114.9,-1748.6 -71.5,-834.7 -132.7,-1562.2 -140.4,-1613.3 l -10.2,-97 H 8031 c 679,0 1235.5,7.7 1235.5,17.9 0,10.2 58.7,691.8 130.2,1513.7 165.9,1896.6 160.8,2185.1 -40.8,2922.8 -331.9,1220.2 -1217.7,2282.1 -2376.6,2846.3 -753,367.6 -1649,523.3 -2460.7,431.4 z"
       id="path4"
       inkscape:connector-curvature="0"
       style="fill:#999999" /><path
       d="m 842.7,-3643.8 c 0,-86.8 68.9,-862.8 91.9,-1036.4 l 12.8,-109.8 h 1225.3 1222.7 v 71.5 c 0,74 -61.3,770.9 -89.3,1021.1 l -15.3,132.8 H 2065.4 842.7 Z"
       id="path6"
       inkscape:connector-curvature="0"
       style="fill:#999999" /><path
       d="m 6729.1,-3595.4 c -12.8,-40.8 -91.9,-1028.7 -91.9,-1123.2 v -71.5 H 7860 9085.3 l 12.8,135.3 c 20.4,176.2 91.9,1005.8 91.9,1051.7 0,33.2 -171,38.3 -1225.3,38.3 -959.8,0.1 -1227.9,-7.6 -1235.6,-30.6 z"
       id="path8"
       inkscape:connector-curvature="0"
       style="fill:#999999" /></g></g>
<g
   transform="matrix(0.77300242,0,0,0.79462123,-1.9673111,202.26565)"
   id="g8"
   style="fill:#999999"><g
     id="g6"
     style="fill:#999999"><path
       d="M 561.3,622.5 V 806.3 H 683.8 L 500,990 316.3,806.3 H 438.8 V 622.5 Z M 438.8,377.5 V 193.8 H 316.3 L 500,10 683.8,193.8 H 561.3 V 377.6 H 438.8 Z M 377.5,561.3 H 193.8 V 683.8 L 10,500 193.8,316.2 v 122.5 h 183.8 v 122.6 z m 245,-122.5 H 806.3 V 316.3 L 990,500 806.3,683.8 V 561.3 H 622.5 Z"
       id="path4-0"
       style="fill:#999999"
       inkscape:connector-curvature="0" /></g></g></svg>