<?xml version="1.0" encoding="UTF-8" standalone="no"?>
<!-- Svg Vector Icons : http://www.onlinewebfonts.com/icon -->

<svg
   xmlns:dc="http://purl.org/dc/elements/1.1/"
   xmlns:cc="http://creativecommons.org/ns#"
   xmlns:rdf="http://www.w3.org/1999/02/22-rdf-syntax-ns#"
   xmlns:svg="http://www.w3.org/2000/svg"
   xmlns="http://www.w3.org/2000/svg"
   xmlns:sodipodi="http://sodipodi.sourceforge.net/DTD/sodipodi-0.dtd"
   xmlns:inkscape="http://www.inkscape.org/namespaces/inkscape"
   version="1.1"
   x="0px"
   y="0px"
   viewBox="0 0 1000 1000"
   enable-background="new 0 0 1000 1000"
   xml:space="preserve"
   id="svg8"
   sodipodi:docname="view-points.svg"
   inkscape:version="0.92.4 (5da689c313, 2019-01-14)"><defs
   id="defs12" /><sodipodi:namedview
   pagecolor="#ffffff"
   bordercolor="#666666"
   borderopacity="1"
   objecttolerance="10"
   gridtolerance="10"
   guidetolerance="10"
   inkscape:pageopacity="0"
   inkscape:pageshadow="2"
   inkscape:window-width="3840"
   inkscape:window-height="2004"
   id="namedview10"
   showgrid="false"
   inkscape:zoom="0.3337544"
   inkscape:cx="315.52115"
   inkscape:cy="414.26104"
   inkscape:window-x="-16"
   inkscape:window-y="-16"
   inkscape:window-maximized="1"
   inkscape:current-layer="svg8" />
<metadata
   id="metadata2"> Svg Vector Icons : http://www.onlinewebfonts.com/icon <rdf:RDF><cc:Work
     rdf:about=""><dc:format>image/svg+xml</dc:format><dc:type
       rdf:resource="http://purl.org/dc/dcmitype/StillImage" /><dc:title></dc:title></cc:Work></rdf:RDF></metadata>
<g
   id="g6"
   transform="matrix(0.78980633,0,0,0.58261679,193.8597,-64.465878)"
   style="fill:#999999"><path
     d="m 500,386.9 c 62.5,0 113.1,50.6 113.1,113.1 0,62.5 -50.6,113.1 -113.1,113.1 -62.5,0 -113.1,-50.6 -113.1,-113.1 0,-62.5 50.7,-113.1 113.1,-113.1 z m 0,-188.4 C 763.8,198.5 990,387 990,500 990,613.1 763.8,801.5 500,801.5 236.2,801.5 10,613.1 10,500 10,386.9 236.2,198.5 500,198.5 Z m 0,94.2 c -114.5,0 -207.3,92.8 -207.3,207.3 0,114.5 92.8,207.3 207.3,207.3 114.5,0 207.3,-92.8 207.3,-207.3 0,-114.5 -92.8,-207.3 -207.3,-207.3 z"
     id="path4"
     inkscape:connector-curvature="0"
     style="fill:#999999" /></g>
<ellipse
   style="fill:#999999"
   id="path18"
   cx="191.75777"
   cy="513.67615"
   rx="43.445122"
   ry="43.819649" /><ellipse
   style="fill:#999999"
   id="path18-7"
   cx="358.13855"
   cy="512.7998"
   rx="43.445122"
   ry="43.819649" /><ellipse
   style="fill:#999999"
   id="path18-7-7"
   cx="524.47327"
   cy="513.10242"
   rx="43.445122"
   ry="43.819649" /><ellipse
   style="fill:#999999"
   id="path18-7-5"
   cx="690.28467"
   cy="512.59985"
   rx="43.445122"
   ry="43.819649" /><ellipse
   style="fill:#999999"
   id="path18-4"
   cx="191.44843"
   cy="640.88983"
   rx="43.445122"
   ry="43.819649" /><ellipse
   style="fill:#999999"
   id="path18-7-6"
   cx="357.82916"
   cy="640.01349"
   rx="43.445122"
   ry="43.819649" /><ellipse
   style="fill:#999999"
   id="path18-7-7-5"
   cx="524.16388"
   cy="640.3161"
   rx="43.445122"
   ry="43.819649" /><ellipse
   style="fill:#999999"
   id="path18-7-5-4"
   cx="689.97528"
   cy="639.81354"
   rx="43.445122"
   ry="43.819649" /><ellipse
   style="fill:#999999"
   id="path18-1"
   cx="191.44843"
   cy="764.88983"
   rx="43.445122"
   ry="43.819649" /><ellipse
   style="fill:#999999"
   id="path18-7-3"
   cx="357.82916"
   cy="764.01349"
   rx="43.445122"
   ry="43.819649" /><ellipse
   style="fill:#999999"
   id="path18-7-7-0"
   cx="524.16388"
   cy="764.3161"
   rx="43.445122"
   ry="43.819649" /><ellipse
   style="fill:#999999"
   id="path18-7-5-2"
   cx="689.97528"
   cy="763.81354"
   rx="43.445122"
   ry="43.819649" /><ellipse
   style="fill:#999999"
   id="path18-72"
   cx="191.44843"
   cy="890.88983"
   rx="43.445122"
   ry="43.819649" /><ellipse
   style="fill:#999999"
   id="path18-7-52"
   cx="357.82916"
   cy="890.01349"
   rx="43.445122"
   ry="43.819649" /><ellipse
   style="fill:#999999"
   id="path18-7-7-4"
   cx="524.16388"
   cy="890.3161"
   rx="43.445122"
   ry="43.819649" /><ellipse
   style="fill:#999999"
   id="path18-7-5-26"
   cx="689.97528"
   cy="889.81354"
   rx="43.445122"
   ry="43.819649" /></svg>