<?xml version="1.0" encoding="UTF-8" standalone="no"?>
<!-- Svg Vector Icons : http://www.onlinewebfonts.com/icon -->

<svg
   xmlns:osb="http://www.openswatchbook.org/uri/2009/osb"
   xmlns:dc="http://purl.org/dc/elements/1.1/"
   xmlns:cc="http://creativecommons.org/ns#"
   xmlns:rdf="http://www.w3.org/1999/02/22-rdf-syntax-ns#"
   xmlns:svg="http://www.w3.org/2000/svg"
   xmlns="http://www.w3.org/2000/svg"
   xmlns:sodipodi="http://sodipodi.sourceforge.net/DTD/sodipodi-0.dtd"
   xmlns:inkscape="http://www.inkscape.org/namespaces/inkscape"
   version="1.1"
   x="0px"
   y="0px"
   viewBox="0 0 1000 1000"
   enable-background="new 0 0 1000 1000"
   xml:space="preserve"
   id="svg8"
   sodipodi:docname="view-wireframe.svg"
   inkscape:version="0.92.4 (5da689c313, 2019-01-14)"><defs
   id="defs12"><linearGradient
     id="linearGradient2454"
     osb:paint="solid"><stop
       style="stop-color:#999999;stop-opacity:1;"
       offset="0"
       id="stop2452" /></linearGradient><linearGradient
     id="linearGradient2428"
     osb:paint="solid"><stop
       style="stop-color:#999999;stop-opacity:1;"
       offset="0"
       id="stop2426" /></linearGradient><linearGradient
     id="linearGradient960"
     osb:paint="solid"><stop
       style="stop-color:#999999;stop-opacity:1;"
       offset="0"
       id="stop958" /></linearGradient></defs><sodipodi:namedview
   pagecolor="#ffffff"
   bordercolor="#666666"
   borderopacity="1"
   objecttolerance="10"
   gridtolerance="10"
   guidetolerance="10"
   inkscape:pageopacity="0"
   inkscape:pageshadow="2"
   inkscape:window-width="3811"
   inkscape:window-height="1858"
   id="namedview10"
   showgrid="false"
   inkscape:zoom="1.3350176"
   inkscape:cx="315.52115"
   inkscape:cy="433.34955"
   inkscape:window-x="0"
   inkscape:window-y="0"
   inkscape:window-maximized="0"
   inkscape:current-layer="svg8" />
<metadata
   id="metadata2"> Svg Vector Icons : http://www.onlinewebfonts.com/icon <rdf:RDF><cc:Work
     rdf:about=""><dc:format>image/svg+xml</dc:format><dc:type
       rdf:resource="http://purl.org/dc/dcmitype/StillImage" /><dc:title></dc:title></cc:Work></rdf:RDF></metadata>
<g
   id="g6"
   transform="matrix(0.78980633,0,0,0.58261679,193.8597,-64.465878)"
   style="fill:#999999"><path
     d="m 500,386.9 c 62.5,0 113.1,50.6 113.1,113.1 0,62.5 -50.6,113.1 -113.1,113.1 -62.5,0 -113.1,-50.6 -113.1,-113.1 0,-62.5 50.7,-113.1 113.1,-113.1 z m 0,-188.4 C 763.8,198.5 990,387 990,500 990,613.1 763.8,801.5 500,801.5 236.2,801.5 10,613.1 10,500 10,386.9 236.2,198.5 500,198.5 Z m 0,94.2 c -114.5,0 -207.3,92.8 -207.3,207.3 0,114.5 92.8,207.3 207.3,207.3 114.5,0 207.3,-92.8 207.3,-207.3 0,-114.5 -92.8,-207.3 -207.3,-207.3 z"
     id="path4"
     inkscape:connector-curvature="0"
     style="fill:#999999" /></g>
<rect
   style="fill:#999999;fill-rule:nonzero;stroke:#8c8c8c;stroke-opacity:1;fill-opacity:0;stroke-width:30;stroke-miterlimit:4;stroke-dasharray:none"
   id="rect6161"
   width="642.68817"
   height="447.93417"
   x="128.0882"
   y="491.39249" /><rect
   style="fill:#999999;fill-opacity:0;fill-rule:nonzero;stroke:#8c8c8c;stroke-width:35.80413055;stroke-miterlimit:4;stroke-dasharray:none;stroke-opacity:1"
   id="rect6197"
   width="715.81165"
   height="10.637821"
   x="-419.90726"
   y="835.83813"
   transform="matrix(0.83208615,-0.55464641,0.59251844,0.80555689,0,0)" /></svg>