<?xml version="1.0" encoding="UTF-8" standalone="no"?>
<!-- Svg Vector Icons : http://www.onlinewebfonts.com/icon -->

<svg
   xmlns:dc="http://purl.org/dc/elements/1.1/"
   xmlns:cc="http://creativecommons.org/ns#"
   xmlns:rdf="http://www.w3.org/1999/02/22-rdf-syntax-ns#"
   xmlns:svg="http://www.w3.org/2000/svg"
   xmlns="http://www.w3.org/2000/svg"
   xmlns:sodipodi="http://sodipodi.sourceforge.net/DTD/sodipodi-0.dtd"
   xmlns:inkscape="http://www.inkscape.org/namespaces/inkscape"
   version="1.1"
   x="0px"
   y="0px"
   viewBox="0 0 1000 1000"
   enable-background="new 0 0 1000 1000"
   xml:space="preserve"
   id="svg10"
   sodipodi:docname="pick-geometries.svg"
   inkscape:version="0.92.4 (5da689c313, 2019-01-14)"><defs
   id="defs14"><inkscape:perspective
     sodipodi:type="inkscape:persp3d"
     inkscape:vp_x="-1222.3602 : 645.61602 : 1"
     inkscape:vp_y="0 : 1784.8502 : 0"
     inkscape:vp_z="1953.7777 : 645.61602 : 1"
     inkscape:persp3d-origin="365.70873 : 348.14103 : 1"
     id="perspective88" /></defs><sodipodi:namedview
   pagecolor="#ffffff"
   bordercolor="#666666"
   borderopacity="1"
   objecttolerance="10"
   gridtolerance="10"
   guidetolerance="10"
   inkscape:pageopacity="0"
   inkscape:pageshadow="2"
   inkscape:window-width="3840"
   inkscape:window-height="2004"
   id="namedview12"
   showgrid="false"
   inkscape:zoom="1.3350176"
   inkscape:cx="500"
   inkscape:cy="500"
   inkscape:window-x="-16"
   inkscape:window-y="-16"
   inkscape:window-maximized="1"
   inkscape:current-layer="svg10" />
<metadata
   id="metadata2"> Svg Vector Icons : http://www.onlinewebfonts.com/icon <rdf:RDF><cc:Work
     rdf:about=""><dc:format>image/svg+xml</dc:format><dc:type
       rdf:resource="http://purl.org/dc/dcmitype/StillImage" /><dc:title></dc:title></cc:Work></rdf:RDF></metadata>
<g
   id="g8"
   transform="matrix(-0.28792603,0.50446787,-0.51310935,-0.29701599,742.94518,133.56511)"
   style="fill:#999999"><g
     transform="matrix(0.1,0,0,-0.1,0,512)"
     id="g6"
     style="fill:#999999"><path
       d="m 3913.3,4998.1 c -130.2,-42.1 -243.2,-118.7 -300.7,-199.2 -113,-162.8 -107.2,-23 -109.2,-2931.9 V -806.3 l -36.4,141.7 c -72.8,273.8 -260.4,570.7 -519,815.8 -327.5,310.2 -689.4,465.4 -1039.8,446.2 -294.9,-17.2 -496,-195.3 -522.8,-467.3 -15.3,-139.8 46,-256.6 245.1,-476.8 430.9,-473 578.3,-771.7 718.1,-1442 103.4,-505.6 199.2,-831.1 528.5,-1813.5 317.9,-951.8 348.5,-1028.4 413.6,-1087.7 99.6,-90 53.6,-88.1 2376.5,-90 2171.6,0 2192.7,0 2273.1,38.3 134.1,65.1 160.9,128.3 275.8,622.4 302.9,1315.5 417.8,2336.2 398.6,3561.8 -5.7,438.6 -5.7,440.5 -59.4,549.6 C 8409.7,289 8019.1,402 7735.7,231.6 7617,158.8 7572.9,103.3 7527,-28.8 L 7494.4,-126.5 7481,132 C 7463.8,448 7437,549.5 7333.6,666.3 7023.4,1018.7 6378,919.1 6245.9,497.8 6207.6,381 6207.6,381 6205.7,457.6 c -3.8,264.3 -38.3,534.3 -76.6,612.8 -57.5,116.8 -201.1,245.1 -337.1,296.8 -226,88.1 -532.4,53.6 -716.2,-78.5 -86.2,-63.2 -191.5,-212.6 -191.5,-273.8 0,-19.2 -5.7,-30.6 -13.4,-23 -7.7,7.7 -53.6,821.5 -103.4,1809.7 -84.3,1689 -91.9,1800.1 -132.1,1892 -82.3,195.3 -268.1,314.1 -507.5,325.6 -78.6,3.8 -166.7,-5.8 -214.6,-21.1 z"
       id="path4"
       inkscape:connector-curvature="0"
       style="fill:#999999" /></g></g>
<g
   sodipodi:type="inkscape:box3d"
   id="g146"
   style="fill:#666666"
   inkscape:perspectiveID="#perspective88"
   inkscape:corner0="0.16050797 : 0.086486877 : 0 : 1"
   inkscape:corner7="-0.13110314 : -0.13669116 : 0.25 : 1"><path
     sodipodi:type="inkscape:box3dside"
     id="path148"
     style="fill:#353564;fill-rule:evenodd;stroke:none;stroke-width:1.80881;stroke-linejoin:round"
     inkscape:box3dsidetype="6"
     d="M 146.0655,477.6997 V 820.94539 L 466.46642,738.25153 V 455.84308 Z"
     points="146.0655,820.94539 466.46642,738.25153 466.46642,455.84308 146.0655,477.6997 " /><path
     sodipodi:type="inkscape:box3dside"
     id="path156"
     style="fill:#afafde;fill-rule:evenodd;stroke:none;stroke-width:1.80881;stroke-linejoin:round"
     inkscape:box3dsidetype="13"
     d="M 146.0655,820.94539 605.32385,977.52841 906.61477,838.29653 466.46642,738.25153 Z"
     points="605.32385,977.52841 906.61477,838.29653 466.46642,738.25153 146.0655,820.94539 " /><path
     sodipodi:type="inkscape:box3dside"
     id="path158"
     style="fill:#e9e9ff;fill-rule:evenodd;stroke:none;stroke-width:1.80881;stroke-linejoin:round"
     inkscape:box3dsidetype="11"
     d="m 466.46642,455.84308 440.14835,26.44265 v 356.0108 l -440.14835,-100.045 z"
     points="906.61477,482.28573 906.61477,838.29653 466.46642,738.25153 466.46642,455.84308 " /><path
     sodipodi:type="inkscape:box3dside"
     id="path150"
     style="fill:#4d4d9f;fill-rule:evenodd;stroke:none;stroke-width:1.80881;stroke-linejoin:round"
     inkscape:box3dsidetype="5"
     d="M 146.0655,477.6997 605.32385,519.08577 906.61477,482.28573 466.46642,455.84308 Z"
     points="605.32385,519.08577 906.61477,482.28573 466.46642,455.84308 146.0655,477.6997 " /><path
     sodipodi:type="inkscape:box3dside"
     id="path154"
     style="fill:#d7d7ff;fill-rule:evenodd;stroke:none;stroke-width:1.80881;stroke-linejoin:round"
     inkscape:box3dsidetype="14"
     d="M 605.32385,519.08577 V 977.52841 L 906.61477,838.29653 v -356.0108 z"
     points="605.32385,977.52841 906.61477,838.29653 906.61477,482.28573 605.32385,519.08577 " /><path
     sodipodi:type="inkscape:box3dside"
     id="path152"
     style="fill:#8686bf;fill-rule:evenodd;stroke:none;stroke-width:1.80881;stroke-linejoin:round"
     inkscape:box3dsidetype="3"
     d="m 146.0655,477.6997 459.25835,41.38607 V 977.52841 L 146.0655,820.94539 Z"
     points="605.32385,519.08577 605.32385,977.52841 146.0655,820.94539 146.0655,477.6997 " /></g><path
   style="fill:#e6e6e6;stroke-width:0.74905378"
   d="M 605.61659,748.40067 V 519.2296 l 3.18347,-0.41472 c 1.75092,-0.22809 68.91295,-8.42635 149.24897,-18.21835 80.33602,-9.79201 146.17154,-18.05913 146.30115,-18.37137 0.12961,-0.31225 0.71949,-0.38206 1.31085,-0.15514 0.93003,0.35689 1.07518,24.40658 1.07518,178.14101 0,141.29866 -0.19192,177.87627 -0.93632,178.44974 -0.69913,0.53861 -296.21462,137.32918 -299.55685,138.66127 -0.34455,0.13734 -0.62645,-102.87729 -0.62645,-228.92137 z"
   id="path160"
   inkscape:connector-curvature="0" /><path
   style="fill:#999999;stroke-width:0.74905378"
   d="M 374.34623,898.5812 145.69756,820.56479 V 649.28376 c 0,-169.24871 0.0173,-171.28556 1.46219,-171.6634 0.8042,-0.2103 1.56262,-0.15094 1.68537,0.13193 0.17901,0.41251 301.03571,27.85095 318.30928,29.03013 2.61584,0.17857 6.27292,0.46204 8.12682,0.62994 1.85391,0.16789 5.56173,0.50496 8.2396,0.74905 7.45147,0.6792 11.13475,1.00477 16.85371,1.48974 2.88385,0.24456 6.76021,0.58483 8.61412,0.75616 1.8539,0.17133 5.56172,0.51044 8.23959,0.75359 2.67786,0.24315 6.55422,0.59682 8.61412,0.78593 2.05989,0.18912 5.76771,0.52584 8.23959,0.74827 5.80041,0.52195 10.07085,0.90876 16.10465,1.45874 2.67787,0.24409 6.38569,0.58116 8.2396,0.74905 1.8539,0.1679 5.56172,0.50497 8.23959,0.74906 9.62099,0.87694 11.67596,1.05985 16.10465,1.43341 2.47188,0.2085 6.85385,0.60365 9.7377,0.8781 2.88386,0.27445 6.2546,0.5749 7.49054,0.66767 1.23594,0.0928 2.83704,0.21957 3.55801,0.28176 1.24531,0.10742 1.31084,11.55247 1.31084,228.94901 0,182.5961 -0.18919,228.82581 -0.93632,228.78583 -0.51497,-0.0276 -103.82822,-35.1575 -229.58498,-78.06653 z"
   id="path162"
   inkscape:connector-curvature="0" /><path
   style="fill:#4d4d4d;stroke-width:0.74905378"
   d="m 536.32911,512.64623 c -37.49014,-3.40559 -78.44466,-7.09121 -91.01004,-8.19028 -63.06391,-5.51604 -286.99803,-25.8893 -290.25834,-26.40736 -2.68582,-0.42676 40.85779,-3.62067 153.93055,-11.29072 l 157.67583,-10.69561 174.155,10.5048 c 215.60843,13.00521 221.26429,13.34487 237.82458,14.28221 13.7653,0.77913 20.81359,1.47367 19.4754,1.91909 -1.00113,0.33322 -33.45153,4.33531 -172.28237,21.24747 -64.26882,7.82914 -117.86362,14.36699 -119.09955,14.52858 -1.23594,0.16158 -32.92092,-2.4926 -70.41106,-5.89818 z"
   id="path164"
   inkscape:connector-curvature="0" /></svg>