<?xml version="1.0" encoding="UTF-8" standalone="no"?>
<!-- Svg Vector Icons : http://www.onlinewebfonts.com/icon -->

<svg
   xmlns:dc="http://purl.org/dc/elements/1.1/"
   xmlns:cc="http://creativecommons.org/ns#"
   xmlns:rdf="http://www.w3.org/1999/02/22-rdf-syntax-ns#"
   xmlns:svg="http://www.w3.org/2000/svg"
   xmlns="http://www.w3.org/2000/svg"
   xmlns:sodipodi="http://sodipodi.sourceforge.net/DTD/sodipodi-0.dtd"
   xmlns:inkscape="http://www.inkscape.org/namespaces/inkscape"
   version="1.1"
   x="0px"
   y="0px"
   viewBox="0 0 1000 1000"
   enable-background="new 0 0 1000 1000"
   xml:space="preserve"
   id="svg10"
   sodipodi:docname="pick-lights.svg"
   inkscape:version="0.92.4 (5da689c313, 2019-01-14)"><defs
   id="defs14" /><sodipodi:namedview
   pagecolor="#ffffff"
   bordercolor="#666666"
   borderopacity="1"
   objecttolerance="10"
   gridtolerance="10"
   guidetolerance="10"
   inkscape:pageopacity="0"
   inkscape:pageshadow="2"
   inkscape:window-width="3840"
   inkscape:window-height="2004"
   id="namedview12"
   showgrid="false"
   inkscape:zoom="1.3350176"
   inkscape:cx="500"
   inkscape:cy="500"
   inkscape:window-x="-16"
   inkscape:window-y="-16"
   inkscape:window-maximized="1"
   inkscape:current-layer="svg10" />
<metadata
   id="metadata2"> Svg Vector Icons : http://www.onlinewebfonts.com/icon <rdf:RDF><cc:Work
     rdf:about=""><dc:format>image/svg+xml</dc:format><dc:type
       rdf:resource="http://purl.org/dc/dcmitype/StillImage" /><dc:title></dc:title></cc:Work></rdf:RDF></metadata>
<g
   id="g8"
   transform="matrix(-0.28792603,0.50446787,-0.51310935,-0.29701599,742.94518,133.56511)"
   style="fill:#999999"><g
     transform="matrix(0.1,0,0,-0.1,0,512)"
     id="g6"
     style="fill:#999999"><path
       d="m 3913.3,4998.1 c -130.2,-42.1 -243.2,-118.7 -300.7,-199.2 -113,-162.8 -107.2,-23 -109.2,-2931.9 V -806.3 l -36.4,141.7 c -72.8,273.8 -260.4,570.7 -519,815.8 -327.5,310.2 -689.4,465.4 -1039.8,446.2 -294.9,-17.2 -496,-195.3 -522.8,-467.3 -15.3,-139.8 46,-256.6 245.1,-476.8 430.9,-473 578.3,-771.7 718.1,-1442 103.4,-505.6 199.2,-831.1 528.5,-1813.5 317.9,-951.8 348.5,-1028.4 413.6,-1087.7 99.6,-90 53.6,-88.1 2376.5,-90 2171.6,0 2192.7,0 2273.1,38.3 134.1,65.1 160.9,128.3 275.8,622.4 302.9,1315.5 417.8,2336.2 398.6,3561.8 -5.7,438.6 -5.7,440.5 -59.4,549.6 C 8409.7,289 8019.1,402 7735.7,231.6 7617,158.8 7572.9,103.3 7527,-28.8 L 7494.4,-126.5 7481,132 C 7463.8,448 7437,549.5 7333.6,666.3 7023.4,1018.7 6378,919.1 6245.9,497.8 6207.6,381 6207.6,381 6205.7,457.6 c -3.8,264.3 -38.3,534.3 -76.6,612.8 -57.5,116.8 -201.1,245.1 -337.1,296.8 -226,88.1 -532.4,53.6 -716.2,-78.5 -86.2,-63.2 -191.5,-212.6 -191.5,-273.8 0,-19.2 -5.7,-30.6 -13.4,-23 -7.7,7.7 -53.6,821.5 -103.4,1809.7 -84.3,1689 -91.9,1800.1 -132.1,1892 -82.3,195.3 -268.1,314.1 -507.5,325.6 -78.6,3.8 -166.7,-5.8 -214.6,-21.1 z"
       id="path4"
       inkscape:connector-curvature="0"
       style="fill:#999999" /></g></g>
<g
   transform="matrix(0.70114394,0,0,0.75636336,297.73284,266.3923)"
   id="g34"
   style="fill:#999999"><g
     transform="matrix(0.1,0,0,-0.1,0,511)"
     id="g32"
     style="fill:#999999"><path
       d="m 4900.6,4585.4 c -26.8,-15.3 -59.4,-51.8 -70.9,-80.5 -15.3,-34.5 -28.8,-377.6 -42.2,-954.5 -26.8,-1299.5 -30.7,-1209.4 36.4,-1276.5 47.9,-46 70.9,-55.6 155.2,-55.6 120.8,0 197.4,38.3 228.1,113.1 19.2,44.1 19.2,270.3 1.9,1059.9 -11.5,550.1 -24.9,1029.2 -30.7,1063.7 -11.5,74.8 -105.4,159.1 -176.3,159.1 -28.6,-1.9 -74.6,-13.4 -101.5,-28.7 z"
       id="path4-7"
       inkscape:connector-curvature="0"
       style="fill:#999999" /><path
       d="m 2539.3,3960.6 c -49.8,-28.8 -95.8,-130.3 -84.3,-187.8 11.5,-57.5 573.1,-1082.9 621,-1136.6 103.5,-115 350.7,-5.7 350.7,157.2 0,55.6 -63.2,172.5 -316.3,594.2 C 2936,3677 2775,3930 2753.9,3949.2 c -44,36.3 -160.9,42 -214.6,11.4 z"
       id="path6"
       inkscape:connector-curvature="0"
       style="fill:#999999" /><path
       d="m 7248.6,3954.8 c -21.1,-15.3 -184,-268.3 -358.4,-561.6 -346.9,-580.7 -358.4,-609.5 -272.2,-713 86.3,-99.7 233.8,-120.8 306.7,-40.3 49.8,55.6 622.9,1117.4 622.9,1153.8 0,53.7 -51.8,145.7 -93.9,168.7 -53.7,26.9 -159.1,23.1 -205.1,-7.6 z"
       id="path8"
       inkscape:connector-curvature="0"
       style="fill:#999999" /><path
       d="m 799,2201.1 c -67.1,-67.1 -76.7,-184 -21.1,-247.3 17.3,-23 431.2,-281.7 916.2,-576.9 950.7,-578.8 960.2,-582.7 1069.5,-498.3 111.2,86.3 141.8,245.3 65.2,331.6 -70.9,78.6 -1838.1,1046.5 -1912.8,1046.5 -42.3,0 -78.7,-17.3 -117,-55.6 z"
       id="path10"
       inkscape:connector-curvature="0"
       style="fill:#999999" /><path
       d="m 8122.6,1758.3 c -500.2,-276 -929.6,-523.2 -952.6,-548.2 -132.2,-143.8 57.5,-438.9 237.7,-369.9 55.6,21.1 1673.2,998.6 1765.2,1065.7 82.4,61.3 107.3,126.5 80.5,207 -26.8,80.5 -76.7,124.6 -155.2,136.1 -57.6,7.7 -176.4,-51.8 -975.6,-490.7 z"
       id="path12"
       inkscape:connector-curvature="0"
       style="fill:#999999" /><path
       d="m 4586.3,1796.7 c -433.2,-88.2 -785.8,-279.8 -1096.3,-592.2 -521.3,-525.2 -728.3,-1288 -542.4,-2001 113.1,-431.2 327.7,-778.2 787.7,-1270.7 116.9,-124.6 237.7,-277.9 291.3,-369.9 l 92,-155.2 h 879.7 877.8 l 76.7,130.3 c 107.3,178.2 143.8,224.2 366.1,461.9 323.9,346.9 484.9,575 617.1,883.6 193.6,448.5 230,916.2 111.2,1376.2 -180.2,686.2 -718.8,1259.2 -1383.8,1470.1 -343,109 -747.4,133.9 -1077.1,66.9 z"
       id="path14"
       inkscape:connector-curvature="0"
       style="fill:#999999" /><path
       d="M 806.7,-83.6 C 461.7,-93.2 210.6,-106.6 187.6,-120 84.1,-175.6 68.7,-342.3 160.8,-428.6 l 49.8,-46 634.4,-11.5 c 714.9,-13.4 726.4,-11.5 776.2,118.8 34.5,88.2 3.8,214.7 -61.3,256.8 -65.1,44.2 -113.1,46.1 -753.2,26.9 z"
       id="path16"
       inkscape:connector-curvature="0"
       style="fill:#999999" /><path
       d="m 8423.5,-123.8 c -99.7,-99.7 -74.8,-299 44.1,-354.6 36.4,-17.2 208.9,-19.2 674.7,-9.6 594.2,13.4 630.6,17.3 680.4,53.7 70.9,53.7 95.8,141.8 63.2,218.5 -49.8,118.8 -51.8,118.8 -764.8,130.3 l -649.7,9.6 z"
       id="path18"
       inkscape:connector-curvature="0"
       style="fill:#999999" /><path
       d="m 2543.2,-1440.6 c -36.4,-19.2 -448.5,-266.4 -914.2,-548.2 -927.7,-559.7 -929.6,-559.7 -887.4,-701.5 24.9,-82.4 90.1,-132.3 176.3,-132.3 42.2,0 323.9,143.8 973.7,500.2 502.2,274.1 927.7,515.6 946.8,538.6 97.8,115 -36.4,379.5 -191.7,379.5 -19.2,0.1 -65.2,-15.2 -103.5,-36.3 z"
       id="path20"
       inkscape:connector-curvature="0"
       style="fill:#999999" /><path
       d="m 7258.2,-1432.9 c -111.2,-61.3 -170.6,-247.3 -107.3,-341.2 40.3,-61.3 1857.2,-1048.4 1930.1,-1048.4 72.8,0 168.7,86.3 184,162.9 21.1,116.9 -23,151.4 -960.2,713 -484.9,289.4 -906.6,530.9 -939.2,534.7 -30.8,3.9 -80.6,-3.8 -107.4,-21 z"
       id="path22"
       inkscape:connector-curvature="0"
       style="fill:#999999" /><path
       d="m 4128.2,-2786.1 c -67.1,-53.7 -69,-153.3 -1.9,-218.5 l 46,-47.9 h 826.1 826.1 l 46,47.9 c 30.7,28.8 47.9,69 47.9,105.4 0,36.4 -17.2,76.7 -47.9,105.4 l -46,47.9 h -822.3 c -803.1,0.1 -824.1,0.1 -874,-40.2 z"
       id="path24"
       inkscape:connector-curvature="0"
       style="fill:#999999" /><path
       d="m 4128.2,-3246.1 c -67.1,-53.7 -69,-153.3 -1.9,-218.5 l 46,-47.9 h 826.1 826.1 l 46,47.9 c 30.7,28.8 47.9,69 47.9,105.4 0,36.4 -17.2,76.7 -47.9,105.4 l -46,47.9 h -822.3 c -803.1,0.1 -824.1,0.1 -874,-40.2 z"
       id="path26"
       inkscape:connector-curvature="0"
       style="fill:#999999" /><path
       d="m 4128.2,-3706.1 c -67.1,-53.7 -69,-153.3 -1.9,-218.5 l 46,-47.9 h 826.1 826.1 l 46,47.9 c 30.7,28.8 47.9,69 47.9,105.4 0,36.4 -17.2,76.7 -47.9,105.4 l -46,47.9 h -822.3 c -803.1,0.1 -824.1,0.1 -874,-40.2 z"
       id="path28"
       inkscape:connector-curvature="0"
       style="fill:#999999" /><path
       d="m 4530.7,-4173.7 c 69,-107.3 310.5,-220.4 467.7,-220.4 157.2,0 398.7,113.1 467.7,220.4 l 30.7,47.9 h -498.3 -498.3 z"
       id="path30"
       inkscape:connector-curvature="0"
       style="fill:#999999" /></g></g></svg>