<?xml version="1.0" encoding="UTF-8" standalone="no"?>
<!-- Svg Vector Icons : http://www.onlinewebfonts.com/icon -->

<svg
   xmlns:dc="http://purl.org/dc/elements/1.1/"
   xmlns:cc="http://creativecommons.org/ns#"
   xmlns:rdf="http://www.w3.org/1999/02/22-rdf-syntax-ns#"
   xmlns:svg="http://www.w3.org/2000/svg"
   xmlns="http://www.w3.org/2000/svg"
   xmlns:sodipodi="http://sodipodi.sourceforge.net/DTD/sodipodi-0.dtd"
   xmlns:inkscape="http://www.inkscape.org/namespaces/inkscape"
   version="1.1"
   x="0px"
   y="0px"
   viewBox="0 0 1000 1000"
   enable-background="new 0 0 1000 1000"
   xml:space="preserve"
   id="svg8"
   sodipodi:docname="scale-snap.svg"
   inkscape:version="0.92.4 (5da689c313, 2019-01-14)"><defs
   id="defs12" /><sodipodi:namedview
   pagecolor="#ffffff"
   bordercolor="#666666"
   borderopacity="1"
   objecttolerance="10"
   gridtolerance="10"
   guidetolerance="10"
   inkscape:pageopacity="0"
   inkscape:pageshadow="2"
   inkscape:window-width="3840"
   inkscape:window-height="2004"
   id="namedview10"
   showgrid="false"
   inkscape:zoom="0.944"
   inkscape:cx="309.25102"
   inkscape:cy="385.55187"
   inkscape:window-x="-16"
   inkscape:window-y="-16"
   inkscape:window-maximized="1"
   inkscape:current-layer="svg8"
   inkscape:pagecheckerboard="false" />
<metadata
   id="metadata2"> Svg Vector Icons : http://www.onlinewebfonts.com/icon <rdf:RDF><cc:Work
     rdf:about=""><dc:format>image/svg+xml</dc:format><dc:type
       rdf:resource="http://purl.org/dc/dcmitype/StillImage" /><dc:title></dc:title></cc:Work></rdf:RDF></metadata>
<g
   id="g6"
   style="fill:#ffffff;fill-opacity:0"><path
     d="m 887.1,10 c 29,0 53.4,9.9 73.2,29.7 19.8,19.8 29.7,44.2 29.7,73.2 v 774.2 c 0,29 -9.9,53.4 -29.7,73.2 -19.8,19.8 -44.2,29.7 -73.2,29.7 H 112.9 C 83.9,990 59.5,980.1 39.7,960.3 19.9,940.4 10,916.1 10,887.1 V 112.9 C 10,83.9 19.9,59.5 39.7,39.7 59.6,19.9 84,10 112.9,10 Z M 149.5,116.4 c -25.2,-2.3 -36.2,9.9 -33.2,36.6 1.5,15.3 3.4,31.8 5.7,49.7 2.3,17.9 4.4,36.4 6.3,55.5 1.9,19.1 4,37.5 6.3,55.5 2.3,17.9 4.2,33.7 5.7,47.5 1.5,14.5 5.9,22.9 13.1,25.2 7.2,2.3 15.4,-1.1 24.6,-10.3 6.1,-6.1 13.3,-13.2 21.7,-21.2 8.4,-8 15.2,-14.7 20.6,-20 6.9,-6.9 14.1,-8.4 21.7,-4.6 7.6,3.8 16.4,10.7 26.3,20.6 14.5,14.5 26.9,26.5 37.2,36 10.3,9.5 20.8,19.6 31.5,30.3 10.7,11.4 20,18.5 28,21.2 8,2.7 17.7,-1.3 29.2,-12 7.6,-8.4 13,-14.1 16,-17.1 l 14.9,-14.9 c 11.4,-12.2 15.2,-23.3 11.4,-33.2 -3.8,-9.9 -9.1,-18.3 -16,-25.2 -15.2,-15.2 -28.6,-28 -40,-38.3 -11.4,-10.3 -24.4,-23.1 -38.9,-38.3 -6.9,-6.9 -11.4,-13.2 -13.7,-18.9 -2.3,-5.7 0,-12 6.9,-18.9 6.1,-6.1 13,-13.3 20.6,-21.7 7.6,-8.4 14.5,-15.6 20.6,-21.7 9.1,-9.1 11.6,-17.5 7.4,-25.2 -4.2,-7.6 -14.3,-12.2 -30.3,-13.7 -15.3,-1.5 -31.8,-3.2 -49.7,-5.1 -17.9,-1.9 -35.8,-4 -53.7,-6.3 -17.9,-2.3 -35.6,-4.4 -53.2,-6.3 -17.6,-2 -33.3,-3.7 -47,-5.2 z m 269.9,547.7 c 11.4,-11.4 17.9,-21.7 19.4,-30.9 1.5,-9.1 -3.4,-19.4 -14.9,-30.9 -8.4,-7.6 -14.1,-13 -17.2,-16 l -14.9,-14.9 c -11.4,-11.4 -21.7,-14.7 -30.9,-9.7 -9.2,5 -17.2,10.5 -24,16.6 -15.3,16 -29,30.3 -41.2,42.9 -12.2,12.6 -25.9,26.5 -41.2,41.7 -6.9,6.9 -12.4,10.7 -16.6,11.4 -4.2,0.8 -9.7,-1.9 -16.6,-8 -6.1,-6.1 -13.9,-13.5 -23.4,-22.3 -9.5,-8.8 -17,-16.2 -22.3,-22.3 -9.9,-9.2 -18.7,-11.6 -26.3,-7.4 -7.6,4.2 -12.2,14.3 -13.7,30.3 -1.5,15.2 -3.2,31.8 -5.1,49.7 -1.9,17.9 -4,36 -6.3,54.3 -2.3,18.3 -4.4,36 -6.3,53.2 -1.9,17.2 -3.2,32.6 -4,46.3 -2.3,25.2 9.5,36.2 35.4,33.2 15.2,-1.5 32,-3.4 50.3,-5.7 18.3,-2.3 36.8,-4.4 55.5,-6.3 18.7,-1.9 37,-4 54.9,-6.3 17.9,-2.3 34.1,-4.2 48.6,-5.7 13.7,-1.5 21.7,-5.9 24,-13.2 2.3,-7.2 -1.1,-15.4 -10.3,-24.6 -5.3,-6.1 -11.4,-12.8 -18.3,-20 -6.9,-7.2 -13,-13.5 -18.3,-18.9 -6.9,-6.9 -9.2,-13.3 -6.9,-19.4 2.3,-6.1 8.4,-14.1 18.3,-24 14.5,-14.5 27.4,-27.6 38.9,-39.5 11.7,-11.7 22.7,-22.9 33.4,-33.6 z m 431.1,223 c 25.2,2.3 36.2,-9.9 33.2,-36.6 -1.5,-14.5 -3.4,-30.9 -5.7,-49.2 -2.3,-18.3 -4.4,-37 -6.3,-56 -1.9,-19.1 -4,-37.5 -6.3,-55.5 -2.3,-17.9 -4.2,-33.7 -5.7,-47.5 -1.5,-14.5 -5.9,-22.9 -13.1,-25.2 -7.2,-2.3 -15.4,1.1 -24.6,10.3 -6.1,5.3 -12.8,11.4 -20,18.3 -7.2,6.9 -13.5,13 -18.9,18.3 -6.9,6.9 -14.1,8.6 -21.7,5.1 -7.6,-3.4 -16.4,-10.5 -26.3,-21.2 -14.5,-13.7 -27.6,-26.3 -39.5,-37.7 -11.8,-11.4 -23.1,-22.5 -33.7,-33.2 -11.4,-11.4 -21.7,-17.9 -30.9,-19.4 -9.1,-1.5 -19.1,3.4 -29.7,14.9 -8.4,7.6 -13.9,13 -16.6,16 -2.7,3 -7.4,8.4 -14.3,16 -12.2,11.4 -15.8,21.7 -10.9,30.9 5,9.2 10.9,17.2 17.7,24 15.2,15.2 29.2,29 41.7,41.2 12.6,12.2 26.5,25.9 41.7,41.2 6.9,6.9 11.4,13.1 13.7,18.9 2.3,5.7 0.4,11.6 -5.7,17.7 -6.1,6.1 -13.5,13.9 -22.3,23.4 -8.8,9.5 -16.2,17.3 -22.3,23.4 -9.9,9.2 -12.6,17.5 -8,25.2 4.6,7.6 14.9,12.2 30.9,13.7 15.3,1.5 31.8,3.2 49.7,5.1 17.9,1.9 35.8,4 53.7,6.3 17.9,2.3 35.6,4.4 53.2,6.3 17.6,2 33.3,3.8 47,5.3 z m 34.3,-737.6 c 1.5,-13.7 -0.8,-23.3 -6.9,-28.6 -6.1,-5.3 -16,-7.2 -29.7,-5.7 -15.2,1.5 -31.8,3.4 -49.7,5.7 -17.9,2.3 -36.4,4.4 -55.5,6.3 -19.1,1.9 -37.5,4 -55.5,6.3 -17.9,2.3 -33.7,4.2 -47.5,5.7 -14.5,1.5 -22.9,6.1 -25.2,13.7 -2.3,7.6 1.1,16 10.3,25.2 6.1,5.3 13,12.2 20.6,20.6 7.6,8.4 14.1,14.9 19.4,19.4 6.9,6.9 8.4,14.1 4.6,21.7 -3.8,7.6 -10.7,16.8 -20.6,27.4 -14.5,13.7 -27.1,26.1 -37.7,37.2 -10.7,11.1 -21.3,21.9 -32,32.6 -10.7,11.4 -17.2,21.3 -19.4,29.7 -2.3,8.4 1.9,17.9 12.6,28.6 7.6,8.4 13.2,13.9 16.6,16.6 3.4,2.7 8.6,7.4 15.4,14.3 12.2,12.2 23.3,16.2 33.2,12 9.9,-4.2 18.3,-9.3 25.2,-15.4 15.3,-16 28.4,-29.9 39.5,-41.7 11.1,-11.8 24.2,-25.3 39.5,-40.6 6.9,-6.9 13.1,-11.2 18.9,-13.2 5.7,-1.9 12,0.2 18.9,6.3 6.1,6.1 13.3,13 21.7,20.6 8.4,7.6 15.6,14.5 21.7,20.6 9.1,9.9 17.5,12.8 25.2,8.6 7.6,-4.2 12.2,-14.7 13.7,-31.4 1.5,-15.2 3.2,-31.8 5.1,-49.7 1.9,-17.9 4,-35.8 6.3,-53.7 2.3,-17.9 4.6,-35.3 6.9,-52 z"
     id="path4"
     style="fill:#ffffff;fill-opacity:0"
     inkscape:connector-curvature="0" /></g>
<path
   style="fill:#ffffff;stroke-width:4.237288;opacity:0;fill-opacity:0"
   d="M 82.062792,982.93686 C 56.30525,974.87835 35.723746,957.22678 23.512211,932.7214 L 12.711864,911.04792 V 500.72686 c 0,-452.656809 -1.53019,-426.522729 26.697803,-455.971051 7.456041,-7.778372 21.183553,-18.26566 30.505587,-23.305084 L 86.864407,12.288136 H 500 913.13559 l 16.94916,9.162589 c 9.32203,5.039424 23.04953,15.526712 30.50559,23.305084 28.22797,29.448322 26.6978,3.314242 26.6978,455.971051 V 911.04792 L 976.4878,932.7214 c -12.53568,25.1558 -32.92187,42.23479 -60.21941,50.45013 -27.55996,8.29436 -807.64568,8.07487 -834.205598,-0.23475 z M 878.93462,880.62953 c 3.66224,-3.6622 6.6408,-12.7194 6.61911,-20.12711 -0.0826,-28.19187 -24.95898,-227.21411 -29.4486,-235.60306 -8.30153,-15.51152 -23.13437,-10.81097 -52.46466,16.62606 -16.77492,15.69212 -30.87589,25.42373 -36.83861,25.42373 -6.60211,0 -25.21211,-15.22106 -58.78207,-48.07767 -27.01682,-26.44271 -53.83602,-51.23084 -59.59822,-55.08474 -22.24623,-14.87886 -41.78822,-5.95225 -74.27437,33.92792 -10.48436,12.87064 -19.06245,27.1917 -19.06245,31.82453 0,5.11861 23.27402,32.20606 59.32203,69.04191 32.62712,33.34017 59.32203,62.9289 59.32203,65.75276 0,2.82381 -12.14173,17.81957 -26.98165,33.32389 -35.14818,36.72187 -38.72877,43.66217 -28.83182,55.88441 6.8808,8.49742 17.08411,10.55131 104.8114,21.09852 117.08008,14.07618 146.97445,15.22233 156.20788,5.98885 z m -633.17191,-8.11012 c 124.84103,-14.34403 126.1846,-14.56356 133.42396,-21.80293 10.43417,-10.43419 7.79914,-16.64559 -21.13582,-49.82229 -15.14831,-17.36898 -27.54238,-33.78046 -27.54238,-36.46995 0,-2.68954 23.64642,-29.3467 52.54759,-59.23818 53.46936,-55.30148 60.25758,-65.29437 55.96712,-82.38886 -3.0553,-12.17322 -52.41,-61.14962 -64.90512,-64.40758 -13.2417,-3.45267 -29.60546,9.32445 -83.2833,65.02915 -25.31631,26.2722 -49.27037,47.76767 -53.23124,47.76767 -3.96088,0 -21.68705,-13.34746 -39.39151,-29.66102 -17.70445,-16.31356 -36.04004,-29.66101 -40.74576,-29.66101 -8.2389,0 -21.87303,10.15343 -21.87303,16.28902 0,1.63454 -4.79408,44.87754 -10.6535,96.09564 -14.37385,125.64385 -14.93669,145.06983 -4.42646,152.77322 10.92167,8.00496 18.87864,7.7189 125.24945,-4.50288 z M 407.31539,414.01588 c 16.15501,-15.59635 30.42563,-32.552 31.71249,-37.67922 3.92085,-15.62204 -9.81462,-34.83979 -58.16566,-81.38146 -25.45271,-24.50022 -47.42339,-49.11079 -48.82372,-54.69016 -2.09675,-8.35412 2.40403,-15.2717 25.50433,-39.19946 29.04959,-30.09014 34.68189,-44.52425 21.60771,-55.37486 -6.56616,-5.44943 -194.61533,-29.42883 -231.60211,-29.53312 -23.59904,-0.0666 -33.15782,7.65196 -33.10282,26.72981 0.0867,30.05648 25.80054,233.43999 30.18129,238.71848 9.86324,11.88447 24.36585,6.00292 53.90214,-21.86013 17.30137,-16.32123 32.91142,-27.54237 38.31501,-27.54237 5.90449,0 27.37953,17.69231 60.92543,50.1937 51.53394,49.92935 63.56789,59.601 74.46455,59.84694 3.13973,0.0708 18.92634,-12.6318 35.08136,-28.22815 z m 243.10834,19.96141 c 6.99152,-4.5869 33.81445,-30.31586 59.60648,-57.17549 25.79199,-26.85963 49.99021,-48.8357 53.77373,-48.8357 3.78352,0 21.27441,13.34746 38.8686,29.66102 33.25034,30.83016 39.92441,33.91638 50.49212,23.34867 7.5392,-7.53919 9.48712,-16.55867 15.5667,-72.07748 2.55199,-23.30509 7.38991,-63.92181 10.75093,-90.25939 3.36102,-26.33759 6.11093,-58.23219 6.11093,-70.8769 0,-19.67223 -1.48644,-23.96435 -10.29911,-29.73863 -9.52674,-6.24216 -18.98042,-5.76714 -126.05932,6.33409 -63.66814,7.19528 -120.05047,14.9141 -125.29411,17.15294 -17.71653,7.56427 -12.40581,23.90411 18.00847,55.40783 15.14831,15.69092 27.54238,31.30031 27.54238,34.68754 0,6.84631 -28.22339,45.51285 -33.2206,45.51285 -1.74428,0 -19.77135,18.17074 -40.06017,40.37941 -45.2264,49.50604 -46.40881,55.68218 -16.76161,87.55165 21.28178,22.877 41.36318,37.29945 51.90678,37.27941 3.49576,-0.008 12.07627,-3.76496 19.0678,-8.35182 z"
   id="path14"
   inkscape:connector-curvature="0" /><path
   style="fill:#000000;stroke-width:4.237288;fill-opacity:0;opacity:0"
   d="m 234.74576,988.98305 125,-2.31157 -127.11864,-1.14741 C 162.71186,984.89301 97.281093,982.7864 87.225411,980.84267 63.691271,976.29369 40.732372,957.71682 26.158302,931.43114 l -11.553563,-20.83792 0.05218,-379.23729 c 0.0287,-208.58051 1.738818,-398.12329 3.800263,-421.2062 4.255592,-47.651726 8.279973,-55.434887 40.741319,-78.793798 L 79.808127,16.525424 497.74415,14.40678 c 229.86479,-1.165255 419.65161,-0.702141 421.74848,1.029139 2.09686,1.731282 12.2158,9.3584 22.48656,16.949153 27.4703,20.302305 34.46992,32.060246 38.71844,65.039085 2.07398,16.098923 3.83326,206.219263 3.90949,422.489653 0.15296,434.37933 2.04076,403.79933 -26.81877,434.47314 -26.55132,28.22042 -25.46411,28.02636 -170.07649,30.35881 l -131.35593,2.11865 116.52543,2.22135 c 64.08898,1.22174 -58.89831,2.21856 -273.30509,2.21513 -214.40678,-0.003 -333.58051,-1.04648 -264.83051,-2.31784 z M 881.9222,879.33691 c 5.17356,-5.1736 5.93555,-12.85636 3.81377,-38.45199 -4.9405,-59.59886 -17.07059,-152.74933 -19.89105,-152.74933 -1.54293,0 -1.90013,-4.73512 -0.79382,-10.52254 1.10636,-5.78741 0.54886,-13.89123 -1.23881,-18.00847 -1.78767,-4.11725 -2.8889,-10.51886 -2.44716,-14.22577 0.44169,-3.7069 -1.16856,-11.92576 -3.57839,-18.26411 -3.74288,-9.84449 -6.26763,-11.22703 -17.32132,-9.48495 -7.11686,1.12165 -19.03771,6.93889 -26.49072,12.9272 -7.45305,5.98835 -19.71114,15.88894 -27.24029,22.00131 -9.73577,7.90382 -16.60678,10.38119 -23.79115,8.57801 -5.55606,-1.39449 -33.30572,-24.49178 -61.66593,-51.32737 -28.36025,-26.83555 -52.92962,-48.98538 -54.59864,-49.22182 -33.87424,-4.79869 -35.19636,-4.31827 -61.17043,22.22652 -13.79568,14.09882 -24.08733,26.62992 -22.87034,27.84695 1.21704,1.21699 -0.55661,4.98212 -3.94139,8.36691 -8.79407,8.79407 -7.77361,13.0558 6.55771,27.38716 6.99152,6.99152 12.71186,13.69318 12.71186,14.89254 0,1.19937 20.97458,24.27009 46.61017,51.26826 25.63559,26.99818 46.61017,50.26776 46.61017,51.71013 0,1.44242 -13.34746,17.56983 -29.66102,35.83877 -18.03784,20.19987 -29.66101,36.94123 -29.66101,42.72204 0,10.81665 10.13966,21.10788 16.76356,17.01411 2.43258,-1.50344 4.42288,-0.49776 4.42288,2.23478 0,3.10102 4.73877,4.2728 12.60843,3.11776 6.93466,-1.01776 13.13169,-0.46882 13.77119,1.21996 1.82178,4.81072 141.24805,19.98779 180.62847,19.66207 25.77627,-0.21313 37.15525,-2.05017 41.86326,-6.75813 z m -617.59439,-7.04178 c 50.14936,-5.91564 97.2866,-12.70716 104.7494,-15.09229 16.65783,-5.3239 22.64735,-19.75051 11.5644,-27.85453 -4.22679,-3.09073 -6.26744,-5.6195 -4.53476,-5.6195 1.73268,0 -7.26981,-12.83139 -20.00552,-28.51423 -16.86047,-20.76212 -22.15585,-30.26602 -19.47763,-34.95763 2.02301,-3.54386 25.73174,-30.22636 52.68605,-59.29441 26.95432,-29.06805 48.07334,-55.28627 46.93118,-58.26271 -1.14216,-2.97644 -0.2297,-5.41169 2.02763,-5.41169 2.25737,0 4.10432,-4.15187 4.10432,-9.22636 0,-14.2286 -58.88054,-71.28212 -73.56479,-71.28212 -9.01361,0 -23.84084,11.9436 -68.38436,55.08475 -31.28144,30.29661 -59.54206,55.08474 -62.80137,55.08474 -3.25931,0 -20.31585,-11.96343 -37.90341,-26.58538 -33.5355,-27.8808 -48.49865,-33.17652 -59.30589,-20.98941 -6.98498,7.87687 -27.06408,167.9467 -23.01124,183.44479 1.17908,4.50877 0.41551,8.1978 -1.69682,8.1978 -7.02972,0 -4.52838,58.02894 2.818,65.3753 9.38823,9.38822 38.39339,8.57317 145.80481,-4.09712 z M 402.82897,420.13988 c 32.50378,-30.74072 40.98022,-43.50125 37.66662,-56.70369 -1.48881,-5.93193 -19.36562,-28.25677 -39.72626,-49.61076 -20.36064,-21.35399 -44.15761,-46.97933 -52.88216,-56.9452 -18.53774,-21.17527 -18.18172,-22.64038 14.18692,-58.38295 11.4315,-12.62306 21.99411,-27.77031 23.47247,-33.66053 3.01681,-12.01995 -3.59348,-22.58013 -14.43087,-23.05383 -12.19934,-0.53325 -27.95308,-2.9709 -36.79366,-5.69327 -18.61913,-5.73358 -150.23549,-19.80911 -179.40777,-19.18651 -46.67423,0.99612 -46.31763,-0.0742 -34.67135,104.06789 5.14666,46.0219 10.61059,84.63268 12.14207,85.80173 1.53148,1.16905 3.18213,13.41508 3.6681,27.2134 0.48598,13.79831 2.20846,28.09916 3.82775,31.77966 1.61928,3.68049 3.12844,9.55198 3.35369,13.04774 0.24805,3.84925 5.45412,6.85076 13.20054,7.61062 10.44269,1.02433 18.22194,-3.44606 42.37288,-24.34981 16.27004,-14.08247 32.86979,-25.61106 36.88834,-25.61909 7.23188,-0.0145 54.876,38.85378 75.32067,61.44684 17.93956,19.82471 51.16775,44.47076 59.95618,44.47076 4.59125,0 18.92637,-10.00483 31.85584,-22.233 z m 253.95052,9.9766 c 9.08907,-6.74101 35.55763,-31.52915 58.81898,-55.08474 23.26136,-23.55559 45.18933,-42.78424 48.72882,-42.73031 3.53949,0.0539 20.58305,12.44799 37.87457,27.54237 19.08967,16.66401 35.25937,27.44434 41.1645,27.44434 10.50148,0 20.5775,-13.89302 16.94372,-23.36243 -1.21377,-3.16309 -0.63444,-6.35096 1.28742,-7.08415 4.06877,-1.55223 25.69064,-178.75767 25.69064,-210.55155 0,-18.37109 -1.57517,-22.55045 -10.7695,-28.57482 -9.63148,-6.3108 -16.01203,-6.54138 -60.38135,-2.18214 C 726.23453,124.36592 650,134.39951 650,137.39919 c 0,1.62308 -4.55326,2.08064 -10.11839,1.01679 -22.10699,-4.22601 -36.27763,15.43015 -21.66127,30.04649 3.49576,3.49576 6.35593,7.61664 6.35593,9.1575 0,1.54087 9.5339,13.49837 21.18644,26.57223 11.65254,13.07386 21.18644,25.47916 21.18644,27.56732 0,7.01934 -18.71894,30.32361 -47.67826,59.35738 -15.81517,15.85582 -36.34551,38.43171 -45.62305,50.16863 -16.1992,20.49355 -21.81903,37.52803 -12.38081,37.52803 2.46805,0 3.37945,1.79262 2.02534,3.9836 -3.18106,5.14709 20.5856,32.21124 41.79255,47.59098 20.85614,15.12538 31.00631,15.07203 51.69457,-0.27161 z"
   id="path9"
   inkscape:connector-curvature="0" /><path
   style="fill:#999999;stroke-width:3.42464042"
   d="m 217.27821,614.63133 c -3.7775,-2.11105 -25.76223,-22.04326 -48.85493,-44.2938 -32.50141,-31.31612 -44.0764,-40.45552 -51.23662,-40.45552 -6.72365,0 -15.56449,6.06269 -32.371113,22.19883 -24.679729,23.69515 -35.430785,27.5089 -40.916981,14.51461 -1.784351,-4.22631 -7.822245,-48.41051 -13.417522,-98.18711 -12.570589,-111.83008 -13.729468,-107.5325 28.319212,-105.01825 55.774164,3.33497 161.959144,16.9702 169.638804,21.78335 4.24969,2.66347 7.72673,7.19269 7.72673,10.06494 0,2.87225 -10.81743,16.58821 -24.03873,30.47991 -13.22129,13.8917 -24.03295,26.49046 -24.02588,27.99724 0.0364,7.76238 16.21947,26.74054 46.19137,54.16933 33.92173,31.04346 43.08249,43.05279 43.08249,56.47922 0,7.70857 -25.4292,37.61269 -41.08428,48.31412 -10.17303,6.95405 -10.08087,6.94457 -19.01255,1.95313 z"
   id="path10"
   inkscape:connector-curvature="0" /><path
   style="fill:#999999;stroke-width:3.42464042"
   d="m 406.43095,597.93536 c -12.26276,-11.40807 -23.22233,-23.64476 -24.35462,-27.19263 -3.21806,-10.0834 3.44885,-19.54862 39.60542,-56.22913 38.04604,-38.59737 52.04403,-57.43731 48.99769,-65.94622 -1.13677,-3.17519 -11.87036,-15.99732 -23.8524,-28.49363 -22.88363,-23.86576 -25.93885,-31.17945 -15.3739,-36.80251 3.52639,-1.87689 48.45732,-8.17958 99.84647,-14.00598 86.35455,-9.79071 94.06588,-10.18224 101.76261,-5.16692 10.63531,6.93017 10.62244,7.68759 -1.90233,112.0101 -10.20715,85.0185 -13.22817,98.17122 -22.54864,98.17122 -2.78537,0 -16.73091,-10.75789 -30.9901,-23.90642 -14.25918,-13.14855 -27.76568,-23.8963 -30.01446,-23.88393 -7.49105,0.0413 -21.12507,11.6196 -55.68386,47.28826 -33.04502,34.10625 -46.98767,44.89974 -57.99992,44.89974 -2.85782,0 -15.22921,-9.33387 -27.49196,-20.74195 z"
   id="path12"
   inkscape:connector-curvature="0" /><path
   style="fill:#999999;stroke-width:3.42464042"
   d="m 581.29319,975.50258 c -1.88877,-0.67756 -34.34104,-4.55592 -72.11618,-8.6186 -68.1066,-7.3248 -84.13554,-11.53954 -84.13554,-22.12313 0,-2.76857 10.81743,-16.35904 24.03873,-30.20102 15.28336,-16.00085 24.03873,-27.99343 24.03873,-32.9268 0,-5.37154 -14.26733,-22.1833 -46.3604,-54.62827 -35.01707,-35.40104 -46.3604,-48.99386 -46.3604,-55.55409 0,-6.03829 6.66876,-15.54987 21.88117,-31.20888 32.21286,-33.15858 32.71938,-33.03509 89.72719,21.87408 35.62627,34.31476 48.17006,44.39766 55.23363,44.39766 6.43323,0 15.6606,-6.06696 31.16551,-20.49122 22.79259,-21.20402 32.87631,-24.93905 38.60248,-14.2985 1.83292,3.40602 8.15659,47.91211 14.05259,98.90243 8.09899,70.04227 9.80307,94.41357 6.96973,99.67859 -3.2667,6.07027 -6.94516,6.93414 -28.52672,6.69928 -13.62703,-0.14829 -26.32177,-0.82399 -28.21052,-1.50153 z"
   id="path15"
   inkscape:connector-curvature="0" /><path
   style="fill:#999999;stroke-width:3.42464042"
   d="m 25.213714,968.49177 c -7.148521,-7.10917 -6.942862,-13.30094 3.621915,-109.04258 8.938712,-81.00581 12.908143,-97.33332 23.662987,-97.33332 2.777609,0 17.495564,10.90635 32.706541,24.23631 22.067663,19.33872 29.255663,23.8371 35.570763,22.26084 4.35292,-1.0865 24.02733,-18.56156 43.72089,-38.83346 35.93922,-36.99462 53.71299,-52.06133 61.4153,-52.06133 5.51924,0 41.23707,32.50225 49.15408,44.72886 4.10787,6.34395 5.43801,12.3201 3.8498,17.29655 -1.33465,4.18197 -21.54419,27.12994 -44.91009,50.99549 -27.55946,28.14879 -42.48345,45.96235 -42.48345,50.70905 0,4.12098 9.78539,18.47548 22.40223,32.86254 18.68704,21.30895 21.82677,26.61473 18.93233,31.99329 -4.05981,7.54409 -4.65316,7.65094 -105.44853,18.9899 -89.503103,10.06865 -95.109556,10.24409 -102.194766,3.19786 z"
   id="path17"
   inkscape:connector-curvature="0" /><g
   id="g12"
   transform="matrix(0.32077834,0.26631531,-0.28110846,0.33859676,775.04042,-88.245712)"
   style="fill:#999999"><g
     transform="matrix(0.1,0,0,-0.1,0,511)"
     id="g10"
     style="fill:#999999"><path
       d="M 4518.6,4984.2 C 4202.1,4948.5 3908.5,4884.6 3592,4780 1761.7,4185.2 490.4,2449.4 485.3,545.1 c 0,-250.2 234.8,-3065.8 270.6,-3234.2 l 10.2,-58.7 h 1225.3 c 929.2,0 1225.3,7.7 1225.3,30.6 0,15.3 -63.8,742.8 -142.9,1613.3 C 2969.1,52.4 2935.9,542.5 2946.1,711 c 43.4,730.1 464.6,1358 1125.7,1674.6 296.1,143 464.6,181.2 850,194 288.4,12.8 375.2,5.1 582,-43.4 C 6387.1,2332 7007.4,1604.5 7061,711 c 10.2,-163.4 -23,-673.9 -114.9,-1748.6 -71.5,-834.7 -132.7,-1562.2 -140.4,-1613.3 l -10.2,-97 H 8031 c 679,0 1235.5,7.7 1235.5,17.9 0,10.2 58.7,691.8 130.2,1513.7 165.9,1896.6 160.8,2185.1 -40.8,2922.8 -331.9,1220.2 -1217.7,2282.1 -2376.6,2846.3 -753,367.6 -1649,523.3 -2460.7,431.4 z"
       id="path4-9"
       inkscape:connector-curvature="0"
       style="fill:#999999" /><path
       d="m 842.7,-3643.8 c 0,-86.8 68.9,-862.8 91.9,-1036.4 l 12.8,-109.8 h 1225.3 1222.7 v 71.5 c 0,74 -61.3,770.9 -89.3,1021.1 l -15.3,132.8 H 2065.4 842.7 Z"
       id="path6"
       inkscape:connector-curvature="0"
       style="fill:#999999" /><path
       d="m 6729.1,-3595.4 c -12.8,-40.8 -91.9,-1028.7 -91.9,-1123.2 v -71.5 H 7860 9085.3 l 12.8,135.3 c 20.4,176.2 91.9,1005.8 91.9,1051.7 0,33.2 -171,38.3 -1225.3,38.3 -959.8,0.1 -1227.9,-7.6 -1235.6,-30.6 z"
       id="path8"
       inkscape:connector-curvature="0"
       style="fill:#999999" /></g></g></svg>