<?xml version="1.0" encoding="UTF-8" standalone="no"?>
<!-- Svg Vector Icons : http://www.onlinewebfonts.com/icon -->

<svg
   xmlns:dc="http://purl.org/dc/elements/1.1/"
   xmlns:cc="http://creativecommons.org/ns#"
   xmlns:rdf="http://www.w3.org/1999/02/22-rdf-syntax-ns#"
   xmlns:svg="http://www.w3.org/2000/svg"
   xmlns="http://www.w3.org/2000/svg"
   xmlns:sodipodi="http://sodipodi.sourceforge.net/DTD/sodipodi-0.dtd"
   xmlns:inkscape="http://www.inkscape.org/namespaces/inkscape"
   version="1.1"
   x="0px"
   y="0px"
   viewBox="0 0 1000 1000"
   enable-background="new 0 0 1000 1000"
   xml:space="preserve"
   id="svg8"
   sodipodi:docname="snap-half.svg"
   inkscape:version="0.92.4 (5da689c313, 2019-01-14)"><defs
   id="defs12" /><sodipodi:namedview
   pagecolor="#ffffff"
   bordercolor="#666666"
   borderopacity="1"
   objecttolerance="10"
   gridtolerance="10"
   guidetolerance="10"
   inkscape:pageopacity="0"
   inkscape:pageshadow="2"
   inkscape:window-width="3840"
   inkscape:window-height="2004"
   id="namedview10"
   showgrid="false"
   inkscape:zoom="0.944"
   inkscape:cx="581.94811"
   inkscape:cy="441.80317"
   inkscape:window-x="-16"
   inkscape:window-y="-16"
   inkscape:window-maximized="1"
   inkscape:current-layer="svg8" />
<metadata
   id="metadata2"> Svg Vector Icons : http://www.onlinewebfonts.com/icon <rdf:RDF><cc:Work
     rdf:about=""><dc:format>image/svg+xml</dc:format><dc:type
       rdf:resource="http://purl.org/dc/dcmitype/StillImage" /><dc:title></dc:title></cc:Work></rdf:RDF></metadata>

<g
   id="g12"
   transform="matrix(0.32077834,0.26631531,-0.28110846,0.33859676,771.8625,-88.245707)"
   style="fill:#999999"><g
     transform="matrix(0.1,0,0,-0.1,0,511)"
     id="g10"
     style="fill:#999999"><path
       d="M 4518.6,4984.2 C 4202.1,4948.5 3908.5,4884.6 3592,4780 1761.7,4185.2 490.4,2449.4 485.3,545.1 c 0,-250.2 234.8,-3065.8 270.6,-3234.2 l 10.2,-58.7 h 1225.3 c 929.2,0 1225.3,7.7 1225.3,30.6 0,15.3 -63.8,742.8 -142.9,1613.3 C 2969.1,52.4 2935.9,542.5 2946.1,711 c 43.4,730.1 464.6,1358 1125.7,1674.6 296.1,143 464.6,181.2 850,194 288.4,12.8 375.2,5.1 582,-43.4 C 6387.1,2332 7007.4,1604.5 7061,711 c 10.2,-163.4 -23,-673.9 -114.9,-1748.6 -71.5,-834.7 -132.7,-1562.2 -140.4,-1613.3 l -10.2,-97 H 8031 c 679,0 1235.5,7.7 1235.5,17.9 0,10.2 58.7,691.8 130.2,1513.7 165.9,1896.6 160.8,2185.1 -40.8,2922.8 -331.9,1220.2 -1217.7,2282.1 -2376.6,2846.3 -753,367.6 -1649,523.3 -2460.7,431.4 z"
       id="path4-9"
       inkscape:connector-curvature="0"
       style="fill:#999999" /><path
       d="m 842.7,-3643.8 c 0,-86.8 68.9,-862.8 91.9,-1036.4 l 12.8,-109.8 h 1225.3 1222.7 v 71.5 c 0,74 -61.3,770.9 -89.3,1021.1 l -15.3,132.8 H 2065.4 842.7 Z"
       id="path6"
       inkscape:connector-curvature="0"
       style="fill:#999999" /><path
       d="m 6729.1,-3595.4 c -12.8,-40.8 -91.9,-1028.7 -91.9,-1123.2 v -71.5 H 7860 9085.3 l 12.8,135.3 c 20.4,176.2 91.9,1005.8 91.9,1051.7 0,33.2 -171,38.3 -1225.3,38.3 -959.8,0.1 -1227.9,-7.6 -1235.6,-30.6 z"
       id="path8"
       inkscape:connector-curvature="0"
       style="fill:#999999" /></g></g><g
   aria-label="1"
   transform="scale(1.0405534,0.96102709)"
   style="font-style:normal;font-weight:normal;font-size:550.23236084px;line-height:1.25;font-family:sans-serif;letter-spacing:0px;word-spacing:0px;fill:#999999;fill-opacity:1;stroke:none;stroke-width:2.86579347"
   id="text27"><path
     d="M 443.83876,430.9104 H 227.29224 v -40.83756 h 83.28712 V 121.94203 H 227.29224 V 85.403166 q 16.92609,0 36.2702,-2.686681 19.3441,-2.95535 29.28482,-8.328713 12.35874,-6.716704 19.34411,-16.926093 7.25404,-10.478058 8.32871,-27.941487 h 41.64357 V 390.07284 h 81.67511 z"
     style="fill:#999999;stroke-width:2.86579347"
     id="path35"
     inkscape:connector-curvature="0" /></g><rect
   style="fill:#999999;stroke-width:0.98104674"
   id="rect29"
   width="515.88983"
   height="74.797501"
   x="85.805084"
   y="456.6936" /><g
   aria-label="2"
   transform="scale(0.94253885,1.0609642)"
   style="font-style:normal;font-weight:normal;font-size:477.16564941px;line-height:1.25;font-family:sans-serif;letter-spacing:0px;word-spacing:0px;fill:#999999;fill-opacity:1;stroke:none;stroke-width:2.4852376"
   id="text33"><path
     d="M 493.39419,906.59454 H 258.53922 v -48.69512 q 24.46406,-20.9692 48.92812,-41.93839 24.69705,-20.96919 45.89923,-41.7054 44.73428,-43.33633 61.27665,-68.73235 16.54236,-25.62902 16.54236,-55.21888 0,-27.02696 -17.94031,-42.17138 -17.70732,-15.37741 -49.62709,-15.37741 -21.20218,0 -45.89923,7.45572 -24.69705,7.45571 -48.22915,22.83312 h -2.32991 v -48.92812 q 16.54236,-8.15469 44.03531,-14.91143 27.72593,-6.75674 53.58794,-6.75674 53.35494,0 83.64378,25.86201 30.28883,25.62901 30.28883,69.66432 0,19.80424 -5.1258,37.04557 -4.89281,17.00835 -14.67843,32.38576 -9.08665,14.44544 -21.43518,28.42491 -12.11553,13.97946 -29.58986,30.9878 -24.93004,24.46406 -51.49102,47.53018 -26.56098,22.83312 -49.62709,42.40437 h 186.62582 z"
     style="fill:#999999;stroke-width:2.4852376"
     id="path38"
     inkscape:connector-curvature="0" /></g></svg>