<?xml version="1.0" encoding="UTF-8" standalone="no"?>
<!-- Svg Vector Icons : http://www.onlinewebfonts.com/icon -->

<svg
   xmlns:dc="http://purl.org/dc/elements/1.1/"
   xmlns:cc="http://creativecommons.org/ns#"
   xmlns:rdf="http://www.w3.org/1999/02/22-rdf-syntax-ns#"
   xmlns:svg="http://www.w3.org/2000/svg"
   xmlns="http://www.w3.org/2000/svg"
   xmlns:sodipodi="http://sodipodi.sourceforge.net/DTD/sodipodi-0.dtd"
   xmlns:inkscape="http://www.inkscape.org/namespaces/inkscape"
   version="1.1"
   x="0px"
   y="0px"
   viewBox="0 0 1000 1000"
   enable-background="new 0 0 1000 1000"
   xml:space="preserve"
   id="svg8"
   sodipodi:docname="scale.svg"
   inkscape:version="0.92.4 (5da689c313, 2019-01-14)"><defs
   id="defs12" /><sodipodi:namedview
   pagecolor="#ffffff"
   bordercolor="#666666"
   borderopacity="1"
   objecttolerance="10"
   gridtolerance="10"
   guidetolerance="10"
   inkscape:pageopacity="0"
   inkscape:pageshadow="2"
   inkscape:window-width="3840"
   inkscape:window-height="2004"
   id="namedview10"
   showgrid="false"
   inkscape:zoom="0.236"
   inkscape:cx="-572.0339"
   inkscape:cy="500"
   inkscape:window-x="-16"
   inkscape:window-y="-16"
   inkscape:window-maximized="1"
   inkscape:current-layer="svg8"
   inkscape:pagecheckerboard="false" />
<metadata
   id="metadata2"> Svg Vector Icons : http://www.onlinewebfonts.com/icon <rdf:RDF><cc:Work
     rdf:about=""><dc:format>image/svg+xml</dc:format><dc:type
       rdf:resource="http://purl.org/dc/dcmitype/StillImage" /><dc:title></dc:title></cc:Work></rdf:RDF></metadata>
<g
   id="g6"
   style="fill:#ffffff;fill-opacity:0"><path
     d="M887.1,10c29,0,53.4,9.9,73.2,29.7c19.8,19.8,29.7,44.2,29.7,73.2v774.2c0,29-9.9,53.4-29.7,73.2c-19.8,19.8-44.2,29.7-73.2,29.7H112.9c-29,0-53.4-9.9-73.2-29.7C19.9,940.4,10,916.1,10,887.1V112.9c0-29,9.9-53.4,29.7-73.2C59.6,19.9,84,10,112.9,10H887.1L887.1,10z M149.5,116.4c-25.2-2.3-36.2,9.9-33.2,36.6c1.5,15.3,3.4,31.8,5.7,49.7c2.3,17.9,4.4,36.4,6.3,55.5c1.9,19.1,4,37.5,6.3,55.5c2.3,17.9,4.2,33.7,5.7,47.5c1.5,14.5,5.9,22.9,13.1,25.2c7.2,2.3,15.4-1.1,24.6-10.3c6.1-6.1,13.3-13.2,21.7-21.2c8.4-8,15.2-14.7,20.6-20c6.9-6.9,14.1-8.4,21.7-4.6c7.6,3.8,16.4,10.7,26.3,20.6c14.5,14.5,26.9,26.5,37.2,36c10.3,9.5,20.8,19.6,31.5,30.3c10.7,11.4,20,18.5,28,21.2c8,2.7,17.7-1.3,29.2-12c7.6-8.4,13-14.1,16-17.1l14.9-14.9c11.4-12.2,15.2-23.3,11.4-33.2c-3.8-9.9-9.1-18.3-16-25.2c-15.2-15.2-28.6-28-40-38.3c-11.4-10.3-24.4-23.1-38.9-38.3c-6.9-6.9-11.4-13.2-13.7-18.9c-2.3-5.7,0-12,6.9-18.9c6.1-6.1,13-13.3,20.6-21.7c7.6-8.4,14.5-15.6,20.6-21.7c9.1-9.1,11.6-17.5,7.4-25.2c-4.2-7.6-14.3-12.2-30.3-13.7c-15.3-1.5-31.8-3.2-49.7-5.1c-17.9-1.9-35.8-4-53.7-6.3c-17.9-2.3-35.6-4.4-53.2-6.3C178.9,119.6,163.2,117.9,149.5,116.4L149.5,116.4z M419.4,664.1c11.4-11.4,17.9-21.7,19.4-30.9c1.5-9.1-3.4-19.4-14.9-30.9c-8.4-7.6-14.1-13-17.2-16l-14.9-14.9c-11.4-11.4-21.7-14.7-30.9-9.7c-9.2,5-17.2,10.5-24,16.6c-15.3,16-29,30.3-41.2,42.9c-12.2,12.6-25.9,26.5-41.2,41.7c-6.9,6.9-12.4,10.7-16.6,11.4c-4.2,0.8-9.7-1.9-16.6-8c-6.1-6.1-13.9-13.5-23.4-22.3c-9.5-8.8-17-16.2-22.3-22.3c-9.9-9.2-18.7-11.6-26.3-7.4c-7.6,4.2-12.2,14.3-13.7,30.3c-1.5,15.2-3.2,31.8-5.1,49.7c-1.9,17.9-4,36-6.3,54.3c-2.3,18.3-4.4,36-6.3,53.2c-1.9,17.2-3.2,32.6-4,46.3c-2.3,25.2,9.5,36.2,35.4,33.2c15.2-1.5,32-3.4,50.3-5.7c18.3-2.3,36.8-4.4,55.5-6.3c18.7-1.9,37-4,54.9-6.3c17.9-2.3,34.1-4.2,48.6-5.7c13.7-1.5,21.7-5.9,24-13.2c2.3-7.2-1.1-15.4-10.3-24.6c-5.3-6.1-11.4-12.8-18.3-20c-6.9-7.2-13-13.5-18.3-18.9c-6.9-6.9-9.2-13.3-6.9-19.4c2.3-6.1,8.4-14.1,18.3-24c14.5-14.5,27.4-27.6,38.9-39.5C397.7,686,408.7,674.8,419.4,664.1L419.4,664.1z M850.5,887.1c25.2,2.3,36.2-9.9,33.2-36.6c-1.5-14.5-3.4-30.9-5.7-49.2c-2.3-18.3-4.4-37-6.3-56c-1.9-19.1-4-37.5-6.3-55.5c-2.3-17.9-4.2-33.7-5.7-47.5c-1.5-14.5-5.9-22.9-13.1-25.2c-7.2-2.3-15.4,1.1-24.6,10.3c-6.1,5.3-12.8,11.4-20,18.3c-7.2,6.9-13.5,13-18.9,18.3c-6.9,6.9-14.1,8.6-21.7,5.1c-7.6-3.4-16.4-10.5-26.3-21.2c-14.5-13.7-27.6-26.3-39.5-37.7c-11.8-11.4-23.1-22.5-33.7-33.2c-11.4-11.4-21.7-17.9-30.9-19.4c-9.1-1.5-19.1,3.4-29.7,14.9c-8.4,7.6-13.9,13-16.6,16c-2.7,3-7.4,8.4-14.3,16c-12.2,11.4-15.8,21.7-10.9,30.9c5,9.2,10.9,17.2,17.7,24c15.2,15.2,29.2,29,41.7,41.2c12.6,12.2,26.5,25.9,41.7,41.2c6.9,6.9,11.4,13.1,13.7,18.9c2.3,5.7,0.4,11.6-5.7,17.7c-6.1,6.1-13.5,13.9-22.3,23.4c-8.8,9.5-16.2,17.3-22.3,23.4c-9.9,9.2-12.6,17.5-8,25.2c4.6,7.6,14.9,12.2,30.9,13.7c15.3,1.5,31.8,3.2,49.7,5.1c17.9,1.9,35.8,4,53.7,6.3c17.9,2.3,35.6,4.4,53.2,6.3C821.1,883.8,836.8,885.6,850.5,887.1L850.5,887.1z M884.8,149.5c1.5-13.7-0.8-23.3-6.9-28.6c-6.1-5.3-16-7.2-29.7-5.7c-15.2,1.5-31.8,3.4-49.7,5.7c-17.9,2.3-36.4,4.4-55.5,6.3c-19.1,1.9-37.5,4-55.5,6.3c-17.9,2.3-33.7,4.2-47.5,5.7c-14.5,1.5-22.9,6.1-25.2,13.7c-2.3,7.6,1.1,16,10.3,25.2c6.1,5.3,13,12.2,20.6,20.6c7.6,8.4,14.1,14.9,19.4,19.4c6.9,6.9,8.4,14.1,4.6,21.7c-3.8,7.6-10.7,16.8-20.6,27.4c-14.5,13.7-27.1,26.1-37.7,37.2c-10.7,11.1-21.3,21.9-32,32.6c-10.7,11.4-17.2,21.3-19.4,29.7c-2.3,8.4,1.9,17.9,12.6,28.6c7.6,8.4,13.2,13.9,16.6,16.6c3.4,2.7,8.6,7.4,15.4,14.3c12.2,12.2,23.3,16.2,33.2,12c9.9-4.2,18.3-9.3,25.2-15.4c15.3-16,28.4-29.9,39.5-41.7c11.1-11.8,24.2-25.3,39.5-40.6c6.9-6.9,13.1-11.2,18.9-13.2c5.7-1.9,12,0.2,18.9,6.3c6.1,6.1,13.3,13,21.7,20.6c8.4,7.6,15.6,14.5,21.7,20.6c9.1,9.9,17.5,12.8,25.2,8.6c7.6-4.2,12.2-14.7,13.7-31.4c1.5-15.2,3.2-31.8,5.1-49.7c1.9-17.9,4-35.8,6.3-53.7c2.3-17.9,4.6-35.3,6.9-52L884.8,149.5z"
     id="path4"
     style="fill:#ffffff;fill-opacity:0" /></g>
<path
   style="fill:#ffffff;stroke-width:4.237288;opacity:0;fill-opacity:0"
   d="M 82.062792,982.93686 C 56.30525,974.87835 35.723746,957.22678 23.512211,932.7214 L 12.711864,911.04792 V 500.72686 c 0,-452.656809 -1.53019,-426.522729 26.697803,-455.971051 7.456041,-7.778372 21.183553,-18.26566 30.505587,-23.305084 L 86.864407,12.288136 H 500 913.13559 l 16.94916,9.162589 c 9.32203,5.039424 23.04953,15.526712 30.50559,23.305084 28.22797,29.448322 26.6978,3.314242 26.6978,455.971051 V 911.04792 L 976.4878,932.7214 c -12.53568,25.1558 -32.92187,42.23479 -60.21941,50.45013 -27.55996,8.29436 -807.64568,8.07487 -834.205598,-0.23475 z M 878.93462,880.62953 c 3.66224,-3.6622 6.6408,-12.7194 6.61911,-20.12711 -0.0826,-28.19187 -24.95898,-227.21411 -29.4486,-235.60306 -8.30153,-15.51152 -23.13437,-10.81097 -52.46466,16.62606 -16.77492,15.69212 -30.87589,25.42373 -36.83861,25.42373 -6.60211,0 -25.21211,-15.22106 -58.78207,-48.07767 -27.01682,-26.44271 -53.83602,-51.23084 -59.59822,-55.08474 -22.24623,-14.87886 -41.78822,-5.95225 -74.27437,33.92792 -10.48436,12.87064 -19.06245,27.1917 -19.06245,31.82453 0,5.11861 23.27402,32.20606 59.32203,69.04191 32.62712,33.34017 59.32203,62.9289 59.32203,65.75276 0,2.82381 -12.14173,17.81957 -26.98165,33.32389 -35.14818,36.72187 -38.72877,43.66217 -28.83182,55.88441 6.8808,8.49742 17.08411,10.55131 104.8114,21.09852 117.08008,14.07618 146.97445,15.22233 156.20788,5.98885 z m -633.17191,-8.11012 c 124.84103,-14.34403 126.1846,-14.56356 133.42396,-21.80293 10.43417,-10.43419 7.79914,-16.64559 -21.13582,-49.82229 -15.14831,-17.36898 -27.54238,-33.78046 -27.54238,-36.46995 0,-2.68954 23.64642,-29.3467 52.54759,-59.23818 53.46936,-55.30148 60.25758,-65.29437 55.96712,-82.38886 -3.0553,-12.17322 -52.41,-61.14962 -64.90512,-64.40758 -13.2417,-3.45267 -29.60546,9.32445 -83.2833,65.02915 -25.31631,26.2722 -49.27037,47.76767 -53.23124,47.76767 -3.96088,0 -21.68705,-13.34746 -39.39151,-29.66102 -17.70445,-16.31356 -36.04004,-29.66101 -40.74576,-29.66101 -8.2389,0 -21.87303,10.15343 -21.87303,16.28902 0,1.63454 -4.79408,44.87754 -10.6535,96.09564 -14.37385,125.64385 -14.93669,145.06983 -4.42646,152.77322 10.92167,8.00496 18.87864,7.7189 125.24945,-4.50288 z M 407.31539,414.01588 c 16.15501,-15.59635 30.42563,-32.552 31.71249,-37.67922 3.92085,-15.62204 -9.81462,-34.83979 -58.16566,-81.38146 -25.45271,-24.50022 -47.42339,-49.11079 -48.82372,-54.69016 -2.09675,-8.35412 2.40403,-15.2717 25.50433,-39.19946 29.04959,-30.09014 34.68189,-44.52425 21.60771,-55.37486 -6.56616,-5.44943 -194.61533,-29.42883 -231.60211,-29.53312 -23.59904,-0.0666 -33.15782,7.65196 -33.10282,26.72981 0.0867,30.05648 25.80054,233.43999 30.18129,238.71848 9.86324,11.88447 24.36585,6.00292 53.90214,-21.86013 17.30137,-16.32123 32.91142,-27.54237 38.31501,-27.54237 5.90449,0 27.37953,17.69231 60.92543,50.1937 51.53394,49.92935 63.56789,59.601 74.46455,59.84694 3.13973,0.0708 18.92634,-12.6318 35.08136,-28.22815 z m 243.10834,19.96141 c 6.99152,-4.5869 33.81445,-30.31586 59.60648,-57.17549 25.79199,-26.85963 49.99021,-48.8357 53.77373,-48.8357 3.78352,0 21.27441,13.34746 38.8686,29.66102 33.25034,30.83016 39.92441,33.91638 50.49212,23.34867 7.5392,-7.53919 9.48712,-16.55867 15.5667,-72.07748 2.55199,-23.30509 7.38991,-63.92181 10.75093,-90.25939 3.36102,-26.33759 6.11093,-58.23219 6.11093,-70.8769 0,-19.67223 -1.48644,-23.96435 -10.29911,-29.73863 -9.52674,-6.24216 -18.98042,-5.76714 -126.05932,6.33409 -63.66814,7.19528 -120.05047,14.9141 -125.29411,17.15294 -17.71653,7.56427 -12.40581,23.90411 18.00847,55.40783 15.14831,15.69092 27.54238,31.30031 27.54238,34.68754 0,6.84631 -28.22339,45.51285 -33.2206,45.51285 -1.74428,0 -19.77135,18.17074 -40.06017,40.37941 -45.2264,49.50604 -46.40881,55.68218 -16.76161,87.55165 21.28178,22.877 41.36318,37.29945 51.90678,37.27941 3.49576,-0.008 12.07627,-3.76496 19.0678,-8.35182 z"
   id="path14"
   inkscape:connector-curvature="0" /><path
   style="fill:#000000;stroke-width:4.237288;fill-opacity:0;opacity:0"
   d="m 234.74576,988.98305 125,-2.31157 -127.11864,-1.14741 C 162.71186,984.89301 97.281093,982.7864 87.225411,980.84267 63.691271,976.29369 40.732372,957.71682 26.158302,931.43114 l -11.553563,-20.83792 0.05218,-379.23729 c 0.0287,-208.58051 1.738818,-398.12329 3.800263,-421.2062 4.255592,-47.651726 8.279973,-55.434887 40.741319,-78.793798 L 79.808127,16.525424 497.74415,14.40678 c 229.86479,-1.165255 419.65161,-0.702141 421.74848,1.029139 2.09686,1.731282 12.2158,9.3584 22.48656,16.949153 27.4703,20.302305 34.46992,32.060246 38.71844,65.039085 2.07398,16.098923 3.83326,206.219263 3.90949,422.489653 0.15296,434.37933 2.04076,403.79933 -26.81877,434.47314 -26.55132,28.22042 -25.46411,28.02636 -170.07649,30.35881 l -131.35593,2.11865 116.52543,2.22135 c 64.08898,1.22174 -58.89831,2.21856 -273.30509,2.21513 -214.40678,-0.003 -333.58051,-1.04648 -264.83051,-2.31784 z M 881.9222,879.33691 c 5.17356,-5.1736 5.93555,-12.85636 3.81377,-38.45199 -4.9405,-59.59886 -17.07059,-152.74933 -19.89105,-152.74933 -1.54293,0 -1.90013,-4.73512 -0.79382,-10.52254 1.10636,-5.78741 0.54886,-13.89123 -1.23881,-18.00847 -1.78767,-4.11725 -2.8889,-10.51886 -2.44716,-14.22577 0.44169,-3.7069 -1.16856,-11.92576 -3.57839,-18.26411 -3.74288,-9.84449 -6.26763,-11.22703 -17.32132,-9.48495 -7.11686,1.12165 -19.03771,6.93889 -26.49072,12.9272 -7.45305,5.98835 -19.71114,15.88894 -27.24029,22.00131 -9.73577,7.90382 -16.60678,10.38119 -23.79115,8.57801 -5.55606,-1.39449 -33.30572,-24.49178 -61.66593,-51.32737 -28.36025,-26.83555 -52.92962,-48.98538 -54.59864,-49.22182 -33.87424,-4.79869 -35.19636,-4.31827 -61.17043,22.22652 -13.79568,14.09882 -24.08733,26.62992 -22.87034,27.84695 1.21704,1.21699 -0.55661,4.98212 -3.94139,8.36691 -8.79407,8.79407 -7.77361,13.0558 6.55771,27.38716 6.99152,6.99152 12.71186,13.69318 12.71186,14.89254 0,1.19937 20.97458,24.27009 46.61017,51.26826 25.63559,26.99818 46.61017,50.26776 46.61017,51.71013 0,1.44242 -13.34746,17.56983 -29.66102,35.83877 -18.03784,20.19987 -29.66101,36.94123 -29.66101,42.72204 0,10.81665 10.13966,21.10788 16.76356,17.01411 2.43258,-1.50344 4.42288,-0.49776 4.42288,2.23478 0,3.10102 4.73877,4.2728 12.60843,3.11776 6.93466,-1.01776 13.13169,-0.46882 13.77119,1.21996 1.82178,4.81072 141.24805,19.98779 180.62847,19.66207 25.77627,-0.21313 37.15525,-2.05017 41.86326,-6.75813 z m -617.59439,-7.04178 c 50.14936,-5.91564 97.2866,-12.70716 104.7494,-15.09229 16.65783,-5.3239 22.64735,-19.75051 11.5644,-27.85453 -4.22679,-3.09073 -6.26744,-5.6195 -4.53476,-5.6195 1.73268,0 -7.26981,-12.83139 -20.00552,-28.51423 -16.86047,-20.76212 -22.15585,-30.26602 -19.47763,-34.95763 2.02301,-3.54386 25.73174,-30.22636 52.68605,-59.29441 26.95432,-29.06805 48.07334,-55.28627 46.93118,-58.26271 -1.14216,-2.97644 -0.2297,-5.41169 2.02763,-5.41169 2.25737,0 4.10432,-4.15187 4.10432,-9.22636 0,-14.2286 -58.88054,-71.28212 -73.56479,-71.28212 -9.01361,0 -23.84084,11.9436 -68.38436,55.08475 -31.28144,30.29661 -59.54206,55.08474 -62.80137,55.08474 -3.25931,0 -20.31585,-11.96343 -37.90341,-26.58538 -33.5355,-27.8808 -48.49865,-33.17652 -59.30589,-20.98941 -6.98498,7.87687 -27.06408,167.9467 -23.01124,183.44479 1.17908,4.50877 0.41551,8.1978 -1.69682,8.1978 -7.02972,0 -4.52838,58.02894 2.818,65.3753 9.38823,9.38822 38.39339,8.57317 145.80481,-4.09712 z M 402.82897,420.13988 c 32.50378,-30.74072 40.98022,-43.50125 37.66662,-56.70369 -1.48881,-5.93193 -19.36562,-28.25677 -39.72626,-49.61076 -20.36064,-21.35399 -44.15761,-46.97933 -52.88216,-56.9452 -18.53774,-21.17527 -18.18172,-22.64038 14.18692,-58.38295 11.4315,-12.62306 21.99411,-27.77031 23.47247,-33.66053 3.01681,-12.01995 -3.59348,-22.58013 -14.43087,-23.05383 -12.19934,-0.53325 -27.95308,-2.9709 -36.79366,-5.69327 -18.61913,-5.73358 -150.23549,-19.80911 -179.40777,-19.18651 -46.67423,0.99612 -46.31763,-0.0742 -34.67135,104.06789 5.14666,46.0219 10.61059,84.63268 12.14207,85.80173 1.53148,1.16905 3.18213,13.41508 3.6681,27.2134 0.48598,13.79831 2.20846,28.09916 3.82775,31.77966 1.61928,3.68049 3.12844,9.55198 3.35369,13.04774 0.24805,3.84925 5.45412,6.85076 13.20054,7.61062 10.44269,1.02433 18.22194,-3.44606 42.37288,-24.34981 16.27004,-14.08247 32.86979,-25.61106 36.88834,-25.61909 7.23188,-0.0145 54.876,38.85378 75.32067,61.44684 17.93956,19.82471 51.16775,44.47076 59.95618,44.47076 4.59125,0 18.92637,-10.00483 31.85584,-22.233 z m 253.95052,9.9766 c 9.08907,-6.74101 35.55763,-31.52915 58.81898,-55.08474 23.26136,-23.55559 45.18933,-42.78424 48.72882,-42.73031 3.53949,0.0539 20.58305,12.44799 37.87457,27.54237 19.08967,16.66401 35.25937,27.44434 41.1645,27.44434 10.50148,0 20.5775,-13.89302 16.94372,-23.36243 -1.21377,-3.16309 -0.63444,-6.35096 1.28742,-7.08415 4.06877,-1.55223 25.69064,-178.75767 25.69064,-210.55155 0,-18.37109 -1.57517,-22.55045 -10.7695,-28.57482 -9.63148,-6.3108 -16.01203,-6.54138 -60.38135,-2.18214 C 726.23453,124.36592 650,134.39951 650,137.39919 c 0,1.62308 -4.55326,2.08064 -10.11839,1.01679 -22.10699,-4.22601 -36.27763,15.43015 -21.66127,30.04649 3.49576,3.49576 6.35593,7.61664 6.35593,9.1575 0,1.54087 9.5339,13.49837 21.18644,26.57223 11.65254,13.07386 21.18644,25.47916 21.18644,27.56732 0,7.01934 -18.71894,30.32361 -47.67826,59.35738 -15.81517,15.85582 -36.34551,38.43171 -45.62305,50.16863 -16.1992,20.49355 -21.81903,37.52803 -12.38081,37.52803 2.46805,0 3.37945,1.79262 2.02534,3.9836 -3.18106,5.14709 20.5856,32.21124 41.79255,47.59098 20.85614,15.12538 31.00631,15.07203 51.69457,-0.27161 z"
   id="path9"
   inkscape:connector-curvature="0" /><path
   style="fill:#999999;stroke-width:4.237288"
   d="m 359.74576,433.11569 c -4.66101,-2.6192 -31.78763,-27.34936 -60.28137,-54.95589 -40.10299,-38.85432 -54.3852,-50.1937 -63.22008,-50.1937 -8.29621,0 -19.20479,7.52207 -39.94223,27.54237 -30.45194,29.39889 -43.7175,34.13066 -50.48683,18.00848 -2.20169,-5.24364 -9.65175,-60.06356 -16.55568,-121.82203 -15.51066,-138.74904 -16.94059,-133.41698 34.94264,-130.29751 68.81889,4.13773 199.83894,21.05514 209.31474,27.02688 5.24364,3.3046 9.5339,8.92407 9.5339,12.4877 0,3.56364 -13.34746,20.58121 -29.66102,37.81682 -16.31356,17.23562 -29.65389,32.86706 -29.64518,34.73654 0.0449,9.63089 20.01296,33.17735 56.99483,67.20859 41.85552,38.51604 53.15883,53.41617 53.15883,70.07451 0,9.56413 -31.37669,46.66656 -50.69326,59.94397 -12.55235,8.62797 -12.43863,8.61622 -23.45929,2.42327 z"
   id="path10"
   inkscape:connector-curvature="0" /><path
   style="fill:#999999;stroke-width:4.237288"
   d="m 593.13845,412.40078 c -15.13083,-14.15414 -28.65368,-29.33636 -30.05079,-33.73825 -3.97072,-12.51061 4.25547,-24.25423 48.86852,-69.76422 46.94443,-47.88825 64.21633,-71.26322 60.4575,-81.82034 -1.40264,-3.93949 -14.64665,-19.84808 -29.43112,-35.35241 -28.23575,-29.61056 -32.00554,-38.68475 -18.96962,-45.66136 4.35117,-2.32868 59.79075,-10.14851 123.19905,-17.3774 106.55157,-12.14746 116.06647,-12.63324 125.56334,-6.41066 13.12274,8.59835 13.10686,9.53809 -2.34725,138.97239 -12.59446,105.48356 -16.32204,121.80232 -27.82244,121.80232 -3.43681,0 -20.644,-13.34746 -38.2382,-29.66102 -17.59419,-16.31356 -34.25966,-29.64845 -37.03438,-29.6331 -9.24311,0.0512 -26.06592,14.4166 -68.70748,58.67116 -40.77374,42.31608 -57.97737,55.7077 -71.56522,55.7077 -3.52622,0 -18.79109,-11.58066 -33.92191,-25.73481 z"
   id="path12"
   inkscape:connector-curvature="0" /><path
   style="fill:#999999;stroke-width:4.237288"
   d="m 808.89831,880.85336 c -2.33051,-0.84065 -42.37289,-5.65259 -88.98306,-10.69321 -84.0357,-9.08798 -103.81356,-14.31726 -103.81356,-27.44845 0,-3.43501 13.34746,-20.29688 29.66102,-37.47081 18.8579,-19.85246 29.66102,-34.73181 29.66102,-40.8527 0,-6.66455 -17.60424,-27.52312 -57.20339,-67.77802 -43.20704,-43.92253 -57.20339,-60.78731 -57.20339,-68.92667 0,-7.49179 8.22847,-19.29293 26.99884,-38.72128 39.74696,-41.14027 40.37195,-40.98706 110.71302,27.13947 43.95871,42.57477 59.43631,55.08475 68.15194,55.08475 7.93787,0 19.32337,-7.52736 38.45465,-25.42373 28.12343,-26.30809 40.56557,-30.9422 47.63101,-17.74032 2.26162,4.22588 10.0643,59.44517 17.33928,122.70953 9.99321,86.90236 12.09586,117.14014 8.59984,123.67252 -4.03073,7.53147 -8.56953,8.60327 -35.19868,8.31189 -16.81419,-0.18399 -32.47804,-1.02233 -34.80854,-1.86297 z"
   id="path15"
   inkscape:connector-curvature="0" /><path
   style="fill:#999999;stroke-width:4.237288"
   d="m 122.76029,872.15496 c -8.82045,-8.82045 -8.56669,-16.50266 4.46902,-135.29055 11.02935,-100.50497 15.92717,-120.76272 29.19741,-120.76272 3.42725,0 21.5875,13.53164 40.3561,30.07029 27.22895,23.99381 36.09811,29.57501 43.89021,27.61932 5.37101,-1.34804 29.64696,-23.02957 53.94655,-48.18117 44.34486,-45.89972 66.27565,-64.59318 75.77941,-64.59318 6.8101,0 50.8818,40.32596 60.65048,55.49568 5.06863,7.87103 6.70987,15.28571 4.75021,21.46006 -1.64681,5.18862 -26.58305,33.66047 -55.41388,63.27077 -34.00521,34.92457 -52.4197,57.02609 -52.4197,62.91538 0,5.11295 12.07405,22.92276 27.64178,40.77298 23.05766,26.4383 26.93173,33.02124 23.36032,39.69449 -5.00935,9.36005 -5.74147,9.49263 -130.11135,23.56102 -110.43651,12.4923 -117.35423,12.70997 -126.09656,3.96763 z"
   id="path17"
   inkscape:connector-curvature="0" /></svg>