<?xml version="1.0" encoding="UTF-8" standalone="no"?>
<!-- Svg Vector Icons : http://www.onlinewebfonts.com/icon -->

<svg
   xmlns:dc="http://purl.org/dc/elements/1.1/"
   xmlns:cc="http://creativecommons.org/ns#"
   xmlns:rdf="http://www.w3.org/1999/02/22-rdf-syntax-ns#"
   xmlns:svg="http://www.w3.org/2000/svg"
   xmlns="http://www.w3.org/2000/svg"
   xmlns:sodipodi="http://sodipodi.sourceforge.net/DTD/sodipodi-0.dtd"
   xmlns:inkscape="http://www.inkscape.org/namespaces/inkscape"
   version="1.1"
   x="0px"
   y="0px"
   viewBox="0 0 1000 1000"
   enable-background="new 0 0 1000 1000"
   xml:space="preserve"
   id="svg10"
   sodipodi:docname="pick-physics.svg"
   inkscape:version="0.92.4 (5da689c313, 2019-01-14)"><defs
   id="defs14"><inkscape:perspective
     sodipodi:type="inkscape:persp3d"
     inkscape:vp_x="-1222.3602 : 645.61602 : 1"
     inkscape:vp_y="0 : 1784.8502 : 0"
     inkscape:vp_z="1953.7777 : 645.61602 : 1"
     inkscape:persp3d-origin="365.70873 : 348.14103 : 1"
     id="perspective88" /></defs><sodipodi:namedview
   pagecolor="#ffffff"
   bordercolor="#666666"
   borderopacity="1"
   objecttolerance="10"
   gridtolerance="10"
   guidetolerance="10"
   inkscape:pageopacity="0"
   inkscape:pageshadow="2"
   inkscape:window-width="3840"
   inkscape:window-height="2004"
   id="namedview12"
   showgrid="false"
   inkscape:zoom="1.3350176"
   inkscape:cx="497.00378"
   inkscape:cy="500"
   inkscape:window-x="-16"
   inkscape:window-y="-16"
   inkscape:window-maximized="1"
   inkscape:current-layer="svg10" />
<metadata
   id="metadata2"> Svg Vector Icons : http://www.onlinewebfonts.com/icon <rdf:RDF><cc:Work
     rdf:about=""><dc:format>image/svg+xml</dc:format><dc:type
       rdf:resource="http://purl.org/dc/dcmitype/StillImage" /><dc:title></dc:title></cc:Work></rdf:RDF></metadata>
<g
   id="g8"
   transform="matrix(-0.28792603,0.50446787,-0.51310935,-0.29701599,742.94518,133.56511)"
   style="fill:#999999"><g
     transform="matrix(0.1,0,0,-0.1,0,512)"
     id="g6"
     style="fill:#999999"><path
       d="m 3913.3,4998.1 c -130.2,-42.1 -243.2,-118.7 -300.7,-199.2 -113,-162.8 -107.2,-23 -109.2,-2931.9 V -806.3 l -36.4,141.7 c -72.8,273.8 -260.4,570.7 -519,815.8 -327.5,310.2 -689.4,465.4 -1039.8,446.2 -294.9,-17.2 -496,-195.3 -522.8,-467.3 -15.3,-139.8 46,-256.6 245.1,-476.8 430.9,-473 578.3,-771.7 718.1,-1442 103.4,-505.6 199.2,-831.1 528.5,-1813.5 317.9,-951.8 348.5,-1028.4 413.6,-1087.7 99.6,-90 53.6,-88.1 2376.5,-90 2171.6,0 2192.7,0 2273.1,38.3 134.1,65.1 160.9,128.3 275.8,622.4 302.9,1315.5 417.8,2336.2 398.6,3561.8 -5.7,438.6 -5.7,440.5 -59.4,549.6 C 8409.7,289 8019.1,402 7735.7,231.6 7617,158.8 7572.9,103.3 7527,-28.8 L 7494.4,-126.5 7481,132 C 7463.8,448 7437,549.5 7333.6,666.3 7023.4,1018.7 6378,919.1 6245.9,497.8 6207.6,381 6207.6,381 6205.7,457.6 c -3.8,264.3 -38.3,534.3 -76.6,612.8 -57.5,116.8 -201.1,245.1 -337.1,296.8 -226,88.1 -532.4,53.6 -716.2,-78.5 -86.2,-63.2 -191.5,-212.6 -191.5,-273.8 0,-19.2 -5.7,-30.6 -13.4,-23 -7.7,7.7 -53.6,821.5 -103.4,1809.7 -84.3,1689 -91.9,1800.1 -132.1,1892 -82.3,195.3 -268.1,314.1 -507.5,325.6 -78.6,3.8 -166.7,-5.8 -214.6,-21.1 z"
       id="path4"
       inkscape:connector-curvature="0"
       style="fill:#999999" /></g></g>
<g
   transform="matrix(0.94343884,0,0,0.74755424,53.366977,243.0824)"
   id="g12"
   style="fill:#999999"><g
     transform="matrix(0.1,0,0,-0.1,0,511)"
     id="g10"
     style="fill:#999999"><path
       d="m 7568.3,4893.6 c -193.7,-45 -295.4,-82.2 -422.6,-146.7 -436.3,-227 -716.1,-628.1 -780.7,-1121.1 -25.4,-183.9 -5.9,-407 50.9,-600.7 115.4,-391.3 453.9,-763.1 841.3,-923.5 187.9,-78.3 317,-101.7 555.7,-101.7 238.7,0 367.8,23.5 555.7,101.7 387.4,160.4 725.9,532.2 841.3,921.6 228.9,780.7 -195.7,1577 -976.3,1827.5 -115.5,37 -567.4,66.4 -665.3,42.9 z"
       id="path4-7"
       inkscape:connector-curvature="0"
       style="fill:#999999" /><path
       d="M 1405.1,-134.9 C 929.6,-240.5 499.2,-573.2 282,-1005.6 c -140.9,-283.7 -182,-455.9 -182,-761.1 0,-187.8 9.8,-281.7 41.1,-401.1 127.2,-481.3 448.1,-872.6 886.3,-1085.9 82.2,-39.1 170.2,-78.3 195.7,-86.1 35.2,-9.8 -52.8,-48.9 -385.5,-170.2 -467.6,-168.3 -538.1,-213.3 -538.1,-332.6 0,-135 95.9,-223.1 227,-209.4 68.5,7.8 9100.1,3281.2 9256.7,3355.6 76.3,35.2 131.1,140.9 113.5,221.1 -15.6,70.4 -93.9,150.7 -164.4,166.3 -43,9.8 -806.1,-262.2 -3306.6,-1170 -1788.3,-651.5 -3249.9,-1177.9 -3246,-1170 3.9,5.9 39.1,78.3 78.3,158.5 125.2,256.3 162.4,418.7 160.4,733.7 -2,238.7 -7.8,295.4 -54.8,450 -101.7,336.5 -297.4,628.1 -559.6,837.4 -160.4,127.2 -430.4,268.1 -616.3,318.9 -168.3,46.9 -604.6,54.8 -782.6,15.6 z"
       id="path6"
       inkscape:connector-curvature="0"
       style="fill:#999999" /><path
       d="m 4807.6,-2725.4 c -58.7,-23.5 -1537.9,-1614.2 -1569.2,-1686.6 -35.2,-80.2 -13.7,-160.4 58.7,-221.1 l 58.7,-48.9 H 4878 c 1054.6,0 1537.9,5.9 1571.1,21.5 60.7,27.4 111.5,115.4 111.5,189.8 0,37.2 -21.5,86.1 -52.8,123.3 -131.1,158.5 -1483.1,1594.6 -1520.3,1616.2 -46.9,27.3 -121.2,29.3 -179.9,5.8 z"
       id="path8"
       inkscape:connector-curvature="0"
       style="fill:#999999" /></g></g></svg>