<?xml version="1.0" encoding="UTF-8" standalone="no"?>
<!-- Svg Vector Icons : http://www.onlinewebfonts.com/icon -->

<svg
   xmlns:dc="http://purl.org/dc/elements/1.1/"
   xmlns:cc="http://creativecommons.org/ns#"
   xmlns:rdf="http://www.w3.org/1999/02/22-rdf-syntax-ns#"
   xmlns:svg="http://www.w3.org/2000/svg"
   xmlns="http://www.w3.org/2000/svg"
   xmlns:sodipodi="http://sodipodi.sourceforge.net/DTD/sodipodi-0.dtd"
   xmlns:inkscape="http://www.inkscape.org/namespaces/inkscape"
   version="1.1"
   x="0px"
   y="0px"
   viewBox="0 0 1000 1000"
   enable-background="new 0 0 1000 1000"
   xml:space="preserve"
   id="svg14"
   sodipodi:docname="ui-2.svg"
   inkscape:version="0.92.4 (5da689c313, 2019-01-14)"><defs
   id="defs18" /><sodipodi:namedview
   pagecolor="#ffffff"
   bordercolor="#666666"
   borderopacity="1"
   objecttolerance="10"
   gridtolerance="10"
   guidetolerance="10"
   inkscape:pageopacity="0"
   inkscape:pageshadow="2"
   inkscape:window-width="3840"
   inkscape:window-height="2004"
   id="namedview16"
   showgrid="false"
   inkscape:zoom="1.3350176"
   inkscape:cx="500"
   inkscape:cy="500"
   inkscape:window-x="-16"
   inkscape:window-y="-16"
   inkscape:window-maximized="1"
   inkscape:current-layer="svg14" />
<metadata
   id="metadata2"> Svg Vector Icons : http://www.onlinewebfonts.com/icon <rdf:RDF><cc:Work
     rdf:about=""><dc:format>image/svg+xml</dc:format><dc:type
       rdf:resource="http://purl.org/dc/dcmitype/StillImage" /></cc:Work></rdf:RDF></metadata>
<g
   id="g12"
   style="fill:#999999"><g
     transform="matrix(0.1,0,0,-0.1,0,511)"
     id="g10"
     style="fill:#999999"><path
       d="m 274,4886.6 c -22.5,-6.1 -57.3,-24.6 -79.8,-45 -98.2,-88 -94.2,133 -94.2,-4160.9 0,-2210.4 8.2,-4027.9 16.4,-4040.1 45,-67.6 86,-69.6 2384.4,-69.6 h 2280 l 104.4,-137.1 c 55.3,-77.8 192.4,-227.2 302.9,-333.6 415.5,-403.2 910.7,-652.9 1479.7,-747 253.8,-43 763.4,-32.7 998.8,20.5 1009,223.1 1799,931.2 2112.2,1889.1 100.3,305 131,554.6 118.7,933.3 -16.4,448.2 -81.9,730.7 -262,1115.4 C 9508.6,-414.3 9340.7,-185 9087,68.7 l -233.3,233.3 4.1,2185.8 c 4.1,2382.3 12.3,2237 -110.5,2351.6 l -55.3,51.2 -4187.5,2.1 c -2304.6,2.1 -4208,0.1 -4230.5,-6.1 z m 5008.2,-925.1 67.5,-59.4 6.1,-513.7 c 6.2,-573.1 0,-603.8 -126.9,-665.2 -65.5,-30.7 -247.7,-32.7 -2097.8,-28.7 l -2028.3,6.1 -65.5,67.5 -67.5,65.5 -6.1,476.9 c -8.2,538.3 4.1,607.9 104.4,669.3 63.5,38.9 118.7,40.9 2106,40.9 h 2042.6 z m 1526.8,10.3 c 30.7,-16.4 133,-108.5 227.2,-204.7 l 174,-174 196.5,190.3 c 202.6,196.5 268.1,231.3 366.4,192.4 126.9,-47.1 196.5,-184.2 145.3,-284.5 -14.3,-26.6 -106.4,-133 -206.7,-233.3 l -182.2,-184.2 184.2,-184.2 c 214.9,-214.9 247.6,-280.4 190.3,-395 -22.5,-47.1 -65.5,-90.1 -112.6,-112.6 -114.6,-57.3 -180.1,-24.6 -395,190.3 l -182.2,182.2 -198.5,-192.4 c -192.4,-186.2 -204.7,-194.4 -290.6,-194.4 -110.5,0 -186.3,53.2 -219,151.5 -32.7,104.4 8.2,178.1 212.9,378.6 l 174,174 -192.4,198.5 c -186.2,192.4 -194.4,204.7 -194.4,290.6 -0.1,178.1 157.5,286.6 302.8,210.9 z M 8430,1216.9 c 0,-380.7 -8.2,-614 -20.5,-614 -10.2,0 -69.6,18.4 -131,43 C 7281.8,1018.4 6268.7,893.6 5466.4,298 4944.5,-88.8 4586.3,-629.1 4426.7,-1267.7 c -69.6,-276.3 -90.1,-788 -40.9,-1076.5 26.6,-165.8 116.7,-501.4 165.8,-618.1 14.3,-34.8 -90.1,-36.8 -2003.7,-36.8 H 529.9 V -584 1831.1 H 4480 8430 Z M 7529.4,386 c 716.3,-126.9 1350.8,-612 1678.3,-1285.3 376.6,-771.6 298.8,-1670.1 -204.7,-2382.3 -830.9,-1178.9 -2535.8,-1318.1 -3561.2,-290.6 -921,918.9 -919,2394.6 4.1,3313.6 554.7,552.5 1297.6,781.7 2083.5,644.6 z"
       id="path4"
       inkscape:connector-curvature="0"
       style="fill:#999999" /><path
       d="m 1409.9,3355.7 v -214.9 h 1749.9 1749.9 v 214.9 214.9 H 3159.8 1409.9 Z"
       id="path6"
       inkscape:connector-curvature="0"
       style="fill:#999999" /><path
       d="m 5976,-412.2 c -71.6,-51.2 -106.4,-151.4 -81.9,-239.4 22.5,-83.9 77.8,-131 176,-149.4 47.1,-8.2 69.6,-26.6 75.7,-57.3 34.8,-186.2 83.9,-366.3 135.1,-489.1 65.5,-157.6 233.3,-397.1 315.2,-450.3 l 49.1,-32.8 -114.6,-120.7 c -196.5,-200.6 -354.1,-569 -384.8,-904.6 l -14.3,-137.1 -86,-22.5 c -131,-34.8 -194.4,-159.6 -145.3,-280.4 59.3,-139.2 -2.1,-133 1293.5,-133 h 1170.7 l 61.4,51.2 c 79.8,65.5 98.2,147.4 57.3,243.6 -34.8,83.9 -126.9,135.1 -245.6,135.1 -69.6,0 -69.6,2 -83.9,108.5 -47.1,366.4 -192.4,734.8 -374.5,935.3 l -100.3,112.6 100.3,102.3 c 167.8,169.9 364.3,640.6 364.3,876 0,51.2 6.1,55.3 81.9,55.3 128.9,0 221,49.1 257.9,135.1 40.9,96.2 22.5,178.1 -57.3,243.6 l -61.4,51.2 H 7193.8 C 6145.9,-379.5 6019,-383.6 5976,-412.2 Z"
       id="path8"
       inkscape:connector-curvature="0"
       style="fill:#999999" /></g></g>
</svg>